<?xml version="1.0" standalone="no"?>
<!DOCTYPE svg PUBLIC "-//W3C//DTD SVG 20010904//EN"
 "http://www.w3.org/TR/2001/REC-SVG-20010904/DTD/svg10.dtd">
<svg version="1.0" xmlns="http://www.w3.org/2000/svg"
 width="1000.000000pt" height="1000.000000pt" viewBox="0 0 1000.000000 1000.000000"
 preserveAspectRatio="xMidYMid meet">
<metadata>
Created by potrace 1.14, written by Peter Selinger 2001-2017
</metadata>
<g transform="translate(0.000000,1000.000000) scale(0.100000,-0.100000)"
fill="#000000" stroke="none">
<path d="M5625 9861 c-20 -7 -47 -18 -120 -51 -50 -23 -95 -35 -118 -31 -10 1
-30 -5 -45 -15 -21 -13 -18 -7 13 25 27 28 33 40 20 35 -11 -4 -27 -13 -35
-19 -26 -22 -94 -39 -98 -26 -2 7 -16 1 -35 -15 -32 -27 -32 -27 -35 -6 -4 29
-18 28 -38 -2 -17 -28 -44 -25 -44 5 0 16 -3 17 -25 7 -14 -6 -25 -15 -25 -21
0 -5 -6 -7 -14 -4 -17 7 -39 -17 -55 -58 l-11 -30 6 35 c4 30 3 32 -7 15 -19
-33 -99 -105 -116 -105 -8 0 -34 -18 -56 -41 -23 -23 -43 -36 -45 -30 -2 7 2
19 10 28 7 9 -7 2 -32 -16 -45 -32 -45 -32 -50 -10 -8 34 -27 34 -33 1 -3 -17
-9 -43 -12 -58 -5 -22 -4 -25 4 -14 9 12 11 11 11 -7 0 -13 -5 -23 -11 -23 -5
0 -7 -4 -4 -10 11 -18 -17 -11 -31 8 -12 15 -13 14 -14 -15 0 -18 -3 -33 -7
-33 -19 1 -35 20 -36 44 -4 54 -37 17 -37 -41 0 -24 -5 -43 -11 -43 -5 0 -7
-5 -3 -11 8 -14 -16 -59 -32 -59 -15 0 -25 25 -18 44 3 8 1 17 -4 20 -5 3 -12
-3 -15 -13 -3 -11 -17 -22 -36 -26 -21 -4 -31 -12 -31 -25 0 -10 -5 -22 -11
-25 -5 -4 -14 -18 -19 -31 -7 -16 -17 -24 -34 -24 -25 0 -42 -34 -30 -63 3
-10 -4 -16 -26 -21 -58 -11 -120 -44 -114 -59 7 -18 -47 -64 -106 -89 -47 -20
-63 -35 -56 -54 6 -17 -40 -54 -75 -61 -40 -8 -45 -21 -13 -35 l27 -13 -24 -5
c-13 -3 -24 -12 -24 -20 0 -7 -16 -18 -35 -22 -20 -5 -48 -24 -65 -43 -78 -87
-85 -115 -32 -116 l32 -1 -31 -11 c-17 -7 -39 -20 -48 -29 -9 -10 -30 -25 -46
-35 -20 -12 -28 -23 -25 -34 4 -11 -3 -23 -17 -33 -30 -21 -39 -112 -11 -119
15 -4 14 -5 -3 -6 -23 -1 -39 -26 -23 -36 5 -4 -14 -29 -42 -56 -43 -41 -49
-52 -39 -64 7 -8 20 -15 29 -15 9 0 -10 -16 -42 -34 -32 -18 -57 -36 -55 -40
2 -3 -7 -13 -19 -21 -31 -22 -29 -37 3 -29 l26 7 -25 -25 c-18 -18 -26 -40
-32 -84 -4 -32 -13 -66 -20 -74 -8 -9 -18 -40 -24 -70 -5 -30 -17 -81 -25
-113 -8 -33 -12 -65 -9 -73 3 -8 2 -22 -3 -31 -4 -10 -8 -35 -8 -55 -1 -33 2
-37 18 -32 12 4 16 2 12 -5 -4 -6 -15 -11 -25 -11 -22 0 -39 -40 -40 -92 0
-31 3 -38 19 -38 32 0 32 -18 0 -47 -17 -16 -32 -35 -34 -43 -2 -8 -8 -28 -15
-45 -6 -16 -14 -36 -16 -43 -3 -8 2 -20 10 -29 8 -8 13 -19 10 -24 -4 -5 -3
-9 2 -9 4 0 8 -11 8 -23 0 -15 -6 -24 -15 -23 -10 1 -15 -9 -15 -29 0 -16 -7
-41 -14 -54 -8 -14 -16 -47 -18 -75 -3 -28 -10 -57 -16 -65 -7 -8 -12 -24 -12
-35 0 -15 -14 -28 -49 -46 -27 -14 -53 -32 -57 -40 -5 -8 -33 -86 -64 -174
-104 -297 -137 -623 -89 -886 l6 -35 42 48 42 49 35 -57 c19 -32 45 -70 58
-85 l24 -27 38 20 c45 24 60 67 61 176 l0 76 15 -45 c8 -25 17 -52 20 -60 8
-21 3 -86 -8 -105 -4 -5 -9 -23 -13 -40 -4 -16 -16 -38 -27 -48 -11 -10 -16
-23 -13 -29 4 -6 3 -8 -2 -5 -6 3 -16 2 -23 -3 -8 -4 -28 -2 -47 6 -18 8 -35
14 -38 14 -10 0 -13 -43 -6 -77 5 -21 6 -40 2 -43 -16 -12 -10 -29 9 -25 17 3
20 0 16 -15 -4 -17 11 -32 38 -34 6 -1 11 -18 13 -38 3 -35 5 -37 47 -44 61
-9 69 -22 61 -97 -8 -85 -27 -170 -40 -184 -6 -6 -26 -14 -44 -16 -40 -7 -112
-64 -157 -126 -49 -68 -109 -232 -164 -451 -27 -107 -52 -203 -56 -213 -4 -10
-3 -51 3 -90 11 -71 14 -104 32 -412 6 -88 17 -205 25 -260 9 -55 25 -167 36
-250 33 -252 123 -551 297 -990 54 -135 71 -176 217 -500 37 -82 89 -203 116
-268 51 -125 105 -229 137 -262 10 -12 21 -27 24 -35 5 -12 7 -12 13 3 4 9 4
25 -1 35 -4 9 -6 20 -6 25 1 4 -2 7 -8 7 -5 0 -10 5 -10 11 0 5 5 7 10 4 15
-10 12 0 -9 24 -14 16 -17 30 -12 54 10 48 2 87 -16 87 -14 0 -13 3 3 22 10
12 13 18 7 14 -9 -5 -13 1 -13 18 0 14 6 26 13 26 8 0 9 3 1 8 -6 4 -10 15 -8
25 1 9 -1 17 -5 17 -4 0 -8 6 -9 13 -1 6 -4 28 -6 47 -5 40 -24 107 -38 133
-5 11 -7 22 -4 25 3 3 6 0 6 -6 0 -7 5 -12 11 -12 5 0 7 5 4 10 -4 6 -1 17 5
25 10 12 9 15 -3 15 -11 0 -15 6 -11 18 5 14 4 14 -4 2 -9 -12 -14 -11 -34 5
-48 42 -80 76 -82 88 -1 6 -6 18 -10 26 -6 10 -5 12 2 7 7 -4 12 -2 12 3 0 6
-5 11 -12 11 -6 0 -8 3 -5 6 4 4 -3 15 -14 25 -22 19 -23 27 -7 46 6 7 6 18 0
30 -5 10 -7 24 -5 31 3 6 0 12 -6 12 -6 0 -11 9 -11 21 0 11 -4 18 -9 15 -5
-4 -7 3 -4 14 3 11 9 20 13 20 10 0 -6 81 -17 89 -15 9 -36 53 -39 80 -2 13
-8 27 -14 31 -8 5 -8 15 0 34 6 17 6 25 0 21 -6 -3 -10 -2 -10 4 0 5 5 13 10
16 15 9 12 41 -5 55 -8 7 -12 16 -9 21 3 5 0 9 -6 9 -7 0 -11 17 -9 48 2 47
-7 109 -20 127 -4 6 3 20 16 32 20 19 23 20 24 5 0 -14 2 -14 6 -2 4 8 13 20
21 26 19 14 8 66 -12 58 -7 -3 -16 2 -19 10 -4 11 -1 16 12 16 10 0 21 -7 25
-15 10 -28 46 -17 61 18 8 17 14 26 15 19 0 -18 20 -5 20 14 0 8 -5 13 -12 12
-7 -2 -13 3 -14 10 -1 6 -2 15 -3 18 0 4 -7 1 -15 -5 -12 -10 -13 -8 -9 9 4
14 1 19 -8 17 -8 -2 -11 -2 -6 0 4 3 5 8 3 12 -3 4 13 6 35 5 21 -1 39 1 39 5
0 9 48 30 54 23 3 -3 1 -11 -5 -19 -17 -19 -3 -16 17 4 17 17 17 17 12 -3 -3
-13 -1 -21 8 -21 8 0 14 5 14 10 0 5 6 7 14 4 10 -4 15 2 16 21 2 65 3 69 27
64 17 -3 22 -10 20 -33 -1 -16 -4 -29 -7 -29 -4 0 -12 -17 -19 -37 -10 -27
-11 -38 -2 -41 6 -2 11 -10 11 -18 0 -8 4 -14 10 -14 5 0 12 -11 16 -24 5 -23
7 -24 38 -11 30 13 34 12 63 -11 17 -13 34 -38 38 -54 7 -31 45 -63 45 -38 0
10 2 10 9 0 4 -8 12 -13 17 -12 5 2 16 -11 26 -29 10 -17 14 -31 10 -31 -4 0
2 -7 13 -16 11 -8 21 -19 21 -24 1 -6 2 -14 3 -20 0 -5 7 -10 15 -10 17 0 48
39 40 52 -3 4 0 8 5 8 6 0 12 10 12 23 1 16 2 18 6 5 2 -10 14 -19 26 -19 12
-1 29 -2 37 -3 21 -1 71 -37 65 -46 -3 -4 3 -11 12 -14 10 -4 20 -1 26 10 8
14 12 13 36 -9 14 -14 37 -30 51 -35 36 -13 121 -7 131 9 7 11 9 11 9 1 0 -7
5 -10 10 -7 6 3 10 0 10 -7 1 -8 7 -5 16 7 16 20 16 20 10 -1 -4 -13 -1 -26 9
-34 23 -19 18 -29 -12 -27 -31 2 -40 -24 -10 -29 9 -1 17 3 17 9 0 5 3 7 6 4
4 -4 15 3 25 15 11 11 19 16 19 10 0 -5 9 -8 20 -5 25 7 26 -5 3 -24 -16 -13
-15 -14 15 -10 28 3 33 1 29 -14 -5 -18 17 -34 34 -23 5 3 14 -6 20 -20 13
-27 69 -54 69 -33 0 7 4 6 10 -3 7 -11 12 -12 21 -3 17 17 43 5 28 -13 -9 -11
-6 -14 15 -14 14 0 26 -4 26 -9 0 -5 9 -7 20 -4 11 3 27 0 35 -7 10 -9 15 -9
15 -1 0 6 8 11 18 10 10 0 12 -3 5 -6 -23 -9 -14 -23 10 -14 12 5 31 5 42 0
11 -4 16 -9 10 -10 -5 -1 6 -5 25 -8 19 -4 44 -3 55 2 20 10 20 10 1 -12 -22
-25 -11 -28 16 -4 14 13 18 13 18 2 0 -11 2 -11 10 1 9 13 11 13 19 0 5 -8 7
-18 5 -22 -3 -5 -2 -7 3 -6 4 1 18 -2 31 -6 14 -5 28 -3 36 3 10 9 15 7 20 -6
6 -15 8 -15 16 -3 6 8 10 10 10 4 0 -7 15 -10 40 -8 21 2 42 -1 45 -6 10 -17
38 -12 31 6 -3 9 -2 12 5 9 5 -4 15 -2 22 3 8 7 18 6 30 -3 18 -13 18 -14 0
-24 -10 -6 -13 -11 -6 -11 7 0 22 14 35 30 13 18 28 28 36 25 8 -3 19 -2 25 2
21 13 48 10 43 -4 -3 -7 -1 -13 4 -13 6 0 10 9 10 20 0 12 7 20 18 20 9 0 34
16 54 35 21 20 38 30 40 23 7 -19 26 0 33 33 6 28 8 29 20 12 13 -17 14 -16
24 10 6 15 15 27 20 27 6 0 26 16 46 37 19 20 35 31 35 25 0 -7 5 -12 10 -12
6 0 10 8 8 18 -2 9 3 16 10 14 7 -1 12 9 12 24 0 21 3 24 14 15 11 -9 17 -3
32 33 10 24 21 43 24 41 4 -2 19 9 34 26 24 25 32 41 35 72 1 4 8 7 16 7 8 0
15 6 15 14 0 8 5 16 11 18 9 3 9 9 0 25 -6 12 -11 30 -10 40 0 10 8 2 18 -21
16 -38 17 -38 28 -15 7 13 15 34 18 47 4 14 12 21 20 18 24 -9 36 49 23 107
-6 29 -17 59 -23 67 -25 32 -29 46 -8 27 11 -9 23 -14 28 -10 4 5 5 2 1 -5 -9
-15 23 -57 44 -57 10 0 14 -8 12 -25 l-3 -25 16 23 c16 22 16 24 -4 38 -27 19
-30 74 -3 74 39 -1 68 -45 45 -69 -10 -10 -11 -17 -4 -24 12 -12 40 17 41 42
0 7 6 11 15 7 23 -9 72 25 95 66 20 37 16 50 -7 27 -21 -21 -26 35 -7 77 20
43 28 142 11 125 -15 -15 -36 -81 -31 -96 3 -6 -1 -17 -9 -23 -11 -10 -13 -5
-11 26 1 20 0 45 -3 55 -8 30 -19 19 -21 -21 -4 -93 -4 -92 -24 -81 -10 5 -23
7 -28 4 -6 -3 -10 1 -10 10 0 10 -5 13 -12 9 -6 -4 -23 7 -40 27 -17 19 -27
26 -24 16 3 -10 6 -22 6 -26 0 -4 14 -15 30 -24 17 -10 30 -26 31 -35 0 -10 3
-12 6 -4 9 23 28 12 44 -25 19 -42 16 -59 -14 -74 -17 -10 -19 -9 -14 10 3 13
-4 30 -19 48 -13 15 -24 33 -24 39 0 6 -9 19 -20 29 -11 10 -20 15 -20 11 0
-8 32 -59 42 -66 4 -3 9 -17 10 -30 3 -21 -1 -24 -22 -22 -33 5 -34 6 -19 31
12 17 10 24 -9 50 -12 17 -22 34 -22 39 0 5 -7 15 -15 22 -13 11 -14 10 -9 -5
6 -15 3 -17 -19 -11 -26 6 -27 6 -10 -14 12 -14 19 -16 25 -8 5 9 9 6 13 -7 4
-11 11 -29 16 -40 8 -16 8 -15 4 8 -4 19 -2 26 5 22 13 -8 13 -52 -1 -61 -6
-3 -14 -2 -18 3 -3 6 -24 16 -46 23 -22 7 -50 20 -62 28 -36 23 -28 -3 13 -44
l36 -36 -33 17 -34 16 28 -23 c15 -13 27 -33 27 -44 0 -11 7 -29 15 -40 8 -10
15 -28 15 -38 0 -17 -2 -17 -20 4 -11 13 -20 32 -20 44 -1 19 -2 19 -11 3 -5
-9 -7 -23 -3 -30 4 -6 -1 -5 -12 4 -29 24 -48 34 -40 21 11 -18 -15 -14 -36 5
-20 18 -39 10 -19 -10 6 -6 15 -12 19 -12 22 -2 60 -20 80 -38 16 -15 22 -17
23 -6 0 8 5 2 11 -13 5 -16 16 -28 24 -28 8 0 14 -7 14 -16 0 -19 -14 -11 -69
44 -22 22 -36 30 -41 22 -5 -8 -11 -6 -20 4 -13 16 -35 12 -24 -5 3 -5 10 -7
15 -4 5 4 9 1 9 -5 0 -7 6 -10 14 -7 7 3 25 -7 40 -22 27 -28 34 -51 16 -51
-5 0 -10 8 -10 18 0 9 -9 23 -20 30 -14 9 -20 9 -20 1 0 -8 -6 -7 -17 2 -17
13 -17 12 -2 -6 9 -11 19 -31 22 -43 5 -23 5 -23 -13 -7 -17 15 -19 15 -22 -2
-3 -10 2 -26 11 -36 14 -16 13 -17 -5 -11 -16 6 -16 4 4 -16 13 -12 21 -29 18
-37 -3 -8 -6 -17 -6 -19 0 -3 -10 0 -22 7 -18 10 -20 9 -15 -5 4 -9 2 -16 -4
-16 -6 0 -8 -7 -5 -16 4 -11 -1 -18 -14 -21 -11 -3 -20 -13 -21 -22 0 -11 -3
-9 -9 7 -5 12 -14 22 -20 22 -5 0 -10 8 -10 18 1 14 4 13 20 -7 24 -28 26 -20
4 14 -9 13 -13 29 -9 35 3 5 1 10 -4 10 -6 0 -11 7 -11 17 0 10 10 3 28 -20
15 -20 30 -36 35 -37 30 -1 -35 72 -67 75 -31 4 -31 2 -10 -30 29 -44 -4 -26
-37 20 -18 25 -34 45 -36 45 -7 0 27 -59 37 -65 5 -3 10 -11 10 -17 0 -7 -5
-7 -14 1 -7 6 -21 9 -30 5 -13 -5 -8 -16 29 -58 39 -47 43 -56 35 -82 -4 -16
-9 -23 -9 -17 -1 13 -41 59 -41 47 0 -3 5 -15 11 -27 7 -16 3 -13 -16 8 -15
17 -31 39 -36 50 -8 16 -8 14 -4 -9 6 -26 4 -28 -9 -17 -24 20 -19 4 5 -22 19
-19 21 -20 15 -3 -5 16 -4 17 9 6 8 -7 15 -23 15 -37 0 -14 4 -21 10 -18 6 3
10 -1 10 -10 0 -12 -5 -15 -16 -11 -9 3 -18 6 -20 6 -3 0 -2 5 2 12 5 7 3 8
-7 2 -26 -16 -39 -12 -45 11 -3 14 -11 29 -18 34 -8 7 -11 0 -11 -27 0 -20 4
-43 9 -51 5 -7 10 -30 12 -50 l4 -36 -12 30 c-6 16 -17 36 -25 43 -7 7 -13 22
-13 33 0 12 -4 17 -11 13 -6 -3 -16 0 -21 7 -6 9 -7 -6 -3 -43 5 -44 3 -63 -9
-80 l-16 -22 0 22 c0 13 4 20 10 17 13 -8 12 8 -4 75 -14 56 -22 54 -30 -10
-2 -19 -3 -3 -2 37 2 84 -6 87 -14 5 l-6 -57 -12 45 c-11 45 -11 44 -7 -25 4
-64 3 -68 -9 -41 -9 20 -15 25 -19 15 -4 -9 -6 -10 -6 -1 -2 22 -21 13 -21
-10 -1 -22 -2 -22 -26 7 -15 17 -23 24 -19 17 15 -28 24 -72 13 -66 -7 5 -9 0
-6 -14 8 -29 0 -28 -12 1 -8 20 -9 20 -10 2 0 -15 -2 -17 -9 -6 -5 7 -8 30 -6
50 3 34 2 34 -5 6 -6 -23 -8 -25 -9 -8 0 12 -4 24 -8 26 -5 3 -7 -16 -5 -41 4
-46 3 -46 -13 -24 -13 18 -20 20 -35 12 -20 -11 -20 -12 -33 55 -3 15 -6 13
-12 -12 -4 -19 -12 -30 -18 -26 -6 4 -8 0 -4 -10 3 -10 2 -17 -3 -17 -13 0
-13 16 -1 39 5 9 6 23 1 30 -6 10 -9 8 -15 -8 -15 -49 -29 -15 -28 71 0 34
-14 18 -22 -24 -8 -43 -8 -43 -15 -13 -9 34 -11 33 -16 -10 -2 -16 -6 -41 -9
-55 l-5 -25 19 22 19 22 7 -32 c7 -35 15 -103 8 -74 -3 9 -8 15 -12 13 -4 -3
-6 9 -4 27 l3 32 -14 -35 c-8 -19 -15 -29 -15 -22 -1 6 -8 12 -16 12 -17 0
-18 46 -2 68 6 7 7 15 3 19 -3 3 -6 0 -6 -8 0 -12 -2 -12 -9 0 -6 10 -11 2
-15 -25 -9 -50 -26 -80 -26 -46 0 13 -5 33 -11 44 -8 15 -8 23 1 32 8 8 10 7
5 -6 -4 -10 -5 -18 -2 -18 12 0 57 52 57 65 0 8 16 32 35 52 19 20 32 39 29
42 -3 3 -14 -5 -25 -18 -10 -13 -19 -19 -19 -15 -1 5 -9 -8 -19 -30 l-18 -39
-12 39 -11 39 4 -50 c2 -27 2 -42 -1 -32 -6 22 -20 22 -26 0 -3 -11 -5 -6 -7
12 -3 55 -17 74 -15 20 2 -53 -10 -89 -26 -80 -5 4 -9 11 -9 16 0 6 4 8 9 5 5
-3 8 5 7 19 -1 17 -6 24 -16 22 -8 -2 -13 -10 -12 -18 2 -8 0 -11 -4 -7 -4 4
-13 3 -21 -3 -10 -9 -13 -4 -14 27 -1 22 -3 30 -6 19 -3 -11 -12 -24 -19 -28
-8 -4 -23 -26 -34 -48 -11 -21 -23 -39 -25 -39 -3 0 1 12 8 28 15 30 11 125
-4 101 -5 -8 -9 -26 -9 -41 0 -15 -4 -29 -9 -32 -4 -3 -8 2 -8 12 0 47 -3 57
-13 42 -12 -19 -22 -8 -21 22 1 55 15 103 36 126 21 23 24 62 5 62 -5 0 -10 6
-13 13 -6 17 2 -19 9 -43 4 -14 2 -20 -9 -20 -10 0 -14 7 -10 23 3 16 2 18 -5
8 -7 -9 -12 -10 -16 -2 -4 6 -12 11 -17 11 -5 0 -2 -11 6 -24 13 -19 14 -32 6
-58 l-9 -33 -1 43 c-1 24 -5 41 -10 38 -5 -3 -7 -23 -4 -44 4 -27 1 -42 -11
-51 -14 -11 -16 -11 -16 3 0 9 -7 19 -15 22 -14 6 -13 11 4 40 23 38 13 46
-13 11 -17 -21 -16 -13 0 27 4 11 0 13 -17 9 l-22 -6 23 31 c13 18 20 35 17
39 -4 3 -14 -2 -22 -13 -14 -18 -14 -17 -15 13 0 24 7 37 29 52 16 12 39 21
50 21 12 0 21 5 21 10 0 6 -6 10 -14 10 -8 0 -16 5 -18 11 -3 8 -10 5 -21 -6
-26 -26 -31 -12 -6 18 11 15 16 27 10 27 -6 0 -16 -9 -23 -20 -7 -11 -17 -20
-22 -20 -5 0 -2 8 6 18 8 9 19 24 23 32 6 12 5 13 -6 2 -17 -16 -30 -16 -28 0
4 22 -12 47 -26 42 -9 -4 -11 4 -9 27 2 18 -2 39 -9 47 -9 13 -9 14 1 8 7 -4
12 -2 12 7 0 9 -9 12 -30 9 -23 -3 -30 0 -30 12 0 10 -5 14 -11 10 -9 -5 -10
1 -5 20 6 25 5 27 -16 21 -13 -4 -29 -12 -35 -17 -19 -16 -16 -4 7 22 11 12
17 27 14 31 -3 5 0 9 6 9 6 0 8 4 5 10 -3 5 -2 10 2 10 5 0 9 9 9 20 0 12 -5
19 -13 16 -7 -3 -15 -1 -18 4 -3 4 1 11 7 13 7 3 2 6 -12 7 l-25 1 24 10 c27
11 64 3 56 -12 -4 -5 1 -9 10 -9 9 0 13 -5 10 -10 -3 -6 -1 -10 5 -10 6 0 8
-5 4 -12 -5 -7 -3 -8 5 -4 7 5 18 1 25 -10 8 -11 15 -13 19 -6 4 5 16 8 27 5
15 -4 19 -11 14 -32 -5 -24 -4 -24 9 -8 8 9 16 17 19 17 11 0 4 -36 -10 -52
-14 -16 -14 -18 0 -18 9 0 21 7 28 15 7 8 17 15 22 15 6 0 5 -7 -2 -15 -10
-12 -10 -15 4 -15 9 0 16 -4 16 -10 0 -5 7 -7 15 -4 8 4 15 1 15 -6 0 -7 7
-10 15 -6 23 8 18 -10 -11 -41 -23 -25 -24 -28 -7 -34 21 -7 43 -1 43 13 0 10
25 38 34 38 3 0 6 -6 6 -14 0 -24 39 -30 61 -10 17 16 22 16 29 4 14 -22 12
-33 -6 -26 -26 10 -90 -30 -108 -68 -9 -20 -24 -40 -34 -45 -16 -10 -16 -10 1
-11 22 0 21 -2 -3 -42 -11 -18 -20 -37 -20 -43 0 -5 13 10 29 35 19 30 25 47
17 52 -6 4 -3 9 9 13 11 4 31 12 45 18 14 6 28 10 33 9 4 -1 7 5 7 13 0 8 4
15 10 15 5 0 7 -8 4 -17 -4 -14 -1 -13 14 5 11 12 23 22 26 22 3 0 6 -10 7
-22 0 -22 1 -22 8 -3 4 11 4 35 -1 53 -9 34 -4 52 14 52 7 0 6 -6 -2 -15 -8
-9 -8 -15 -2 -15 11 0 28 -38 24 -54 -2 -5 5 -6 15 -2 10 4 3 -5 -15 -20 -18
-14 -30 -29 -27 -34 3 -4 23 9 44 29 99 91 142 120 121 81 -13 -25 -13 -30 5
-30 8 0 15 9 15 20 0 11 4 20 8 20 4 0 8 -9 8 -20 0 -11 -3 -20 -6 -20 -4 0
-7 -7 -7 -15 0 -8 4 -15 8 -15 12 0 24 23 21 42 -4 20 25 18 39 -3 7 -11 9
-11 9 4 0 9 3 17 8 17 4 0 15 12 25 28 l18 27 -6 -30 c-6 -29 -6 -29 14 -11
12 11 21 15 21 9 0 -5 6 -10 14 -10 9 0 16 14 18 39 3 33 0 40 -19 44 -12 3
-27 3 -32 -1 -6 -3 -20 3 -32 13 -22 21 -87 34 -92 19 -1 -5 -17 -2 -34 7 -18
9 -38 16 -46 16 -8 0 -19 10 -25 22 -6 13 -11 17 -11 11 -1 -19 -22 -16 -46 7
-12 11 -36 22 -53 23 -18 1 -32 7 -32 14 0 11 -29 25 -46 22 -24 -4 -44 3 -44
15 0 9 -7 12 -20 9 -19 -5 -19 -4 -4 26 15 30 34 42 34 20 0 -6 9 -8 20 -4 13
4 37 -3 65 -20 25 -14 50 -23 56 -20 5 4 17 1 25 -6 28 -23 37 5 10 32 -23 24
-23 25 -7 64 26 65 35 76 55 69 10 -4 15 -13 12 -21 -4 -8 -9 -26 -13 -41 -5
-21 -3 -24 11 -19 10 4 16 1 16 -8 0 -8 6 -14 13 -13 16 4 10 -44 -9 -58 -22
-17 -17 -25 11 -18 19 5 25 2 25 -10 0 -9 5 -16 10 -16 6 0 10 5 10 10 0 6 7
10 15 10 8 0 15 4 15 9 0 13 -28 22 -35 10 -7 -11 -25 -2 -25 12 0 6 5 7 10 4
6 -3 10 2 10 12 0 24 19 43 43 43 11 0 17 5 14 13 -10 29 12 45 63 45 32 1 56
7 66 16 20 20 33 20 41 0 5 -13 8 -12 24 5 26 28 79 38 94 17 17 -22 25 -9 14
23 -9 25 -8 25 6 6 9 -11 19 -20 23 -21 22 -3 41 -18 35 -28 -4 -6 1 -5 11 3
15 13 19 13 28 0 8 -12 9 -11 5 2 -4 11 3 20 19 28 13 6 24 16 24 23 0 9 3 8
10 -2 7 -12 10 -12 10 -1 0 9 8 11 26 7 17 -5 23 -3 19 4 -7 11 34 31 48 23 4
-2 7 0 7 6 0 6 7 8 15 5 9 -4 15 0 15 10 0 22 13 20 28 -5 13 -21 13 -21 37 5
13 14 31 26 40 26 8 0 15 5 15 10 0 6 6 10 14 10 8 0 16 7 20 15 3 8 12 15 21
15 8 0 15 4 15 9 0 6 10 16 23 23 13 7 46 28 73 46 26 18 54 30 61 28 7 -3 13
-1 13 4 0 16 41 32 67 25 22 -5 25 -10 19 -36 -3 -17 -1 -40 5 -51 8 -16 8
-19 -1 -13 -8 5 -11 3 -8 -6 3 -8 11 -13 17 -12 7 2 11 -14 11 -44 0 -51 11
-54 12 -4 1 39 6 39 20 1 11 -32 35 -36 30 -5 -6 33 19 104 34 98 8 -3 14 -11
14 -17 0 -7 7 -13 15 -13 8 0 13 8 12 20 -1 11 4 22 12 25 11 4 12 -4 7 -34
-6 -38 -6 -38 8 -14 11 18 15 20 16 9 0 -16 28 -34 37 -25 2 2 4 31 5 65 1 50
5 66 24 87 13 14 24 34 24 45 0 10 5 19 10 19 6 0 10 -14 10 -32 0 -17 3 -29
6 -25 10 9 -7 168 -17 161 -5 -3 -9 4 -9 15 0 11 -4 22 -9 26 -5 3 -12 19 -16
35 -4 17 -10 30 -15 30 -4 0 -10 10 -14 23 -3 12 -22 40 -42 62 -19 22 -42 54
-50 70 -8 17 -25 45 -38 63 -13 18 -27 49 -31 70 -4 27 -22 54 -65 99 -33 34
-60 60 -60 57 0 -3 -7 2 -16 10 -16 16 -84 22 -84 8 0 -5 10 -14 23 -21 12 -7
35 -32 52 -56 16 -24 33 -41 39 -38 5 4 6 1 1 -6 -4 -8 5 -30 22 -54 22 -31
30 -54 30 -89 1 -26 4 -52 8 -58 3 -5 1 -10 -4 -10 -6 0 -12 10 -12 23 -1 12
-2 29 -3 39 -2 38 -16 28 -17 -13 -1 -24 -3 -35 -6 -24 -3 11 -9 24 -14 30 -5
5 -9 17 -9 27 0 10 -4 18 -9 18 -5 0 -8 -14 -6 -31 l4 -30 -19 23 c-11 13 -19
18 -20 11 0 -6 4 -15 10 -18 6 -4 5 -13 -2 -25 -7 -10 -16 -16 -20 -14 -4 3
-8 0 -8 -5 0 -6 -9 -2 -20 9 -12 12 -25 18 -31 15 -5 -4 -14 8 -20 25 -6 17
-14 29 -17 26 -2 -3 -18 4 -35 16 l-29 21 7 -24 8 -24 -23 20 -23 20 14 -25
c7 -14 12 -28 11 -33 -1 -4 7 -16 18 -27 22 -22 26 -40 10 -40 -5 0 -10 7 -10
16 0 8 -5 12 -10 9 -6 -4 -18 11 -26 32 -9 21 -27 48 -40 60 -24 22 -35 18
-12 -5 19 -19 0 -27 -21 -8 -12 11 -25 15 -33 10 -7 -4 -20 -9 -28 -9 -9 -1
-54 -26 -100 -57 -103 -68 -164 -87 -297 -95 -95 -6 -103 -5 -109 13 -12 39
-39 81 -82 127 -34 37 -43 54 -39 73 2 13 0 27 -5 30 -5 3 -8 18 -7 32 2 15 0
32 -4 39 -11 17 12 27 29 12 9 -7 21 -14 28 -15 6 -1 17 -3 25 -5 9 -3 18 9
25 32 6 20 23 52 38 71 15 20 29 54 33 79 9 65 11 159 4 159 -4 0 -6 18 -5 40
1 22 -1 40 -6 40 -4 0 -8 -5 -8 -11 0 -5 -4 -8 -9 -4 -6 3 -9 14 -8 25 1 10 5
16 11 13 5 -4 6 4 3 18 -4 14 0 37 8 52 8 15 12 36 10 47 -2 11 5 37 17 56 16
26 22 56 24 117 2 45 3 87 3 94 1 6 8 19 17 28 11 11 14 23 8 43 -9 35 -6 60
13 89 9 14 13 33 9 47 -3 14 -2 27 3 30 5 3 12 32 16 63 4 32 10 63 13 68 11
17 11 37 0 64 -6 14 -12 33 -12 42 -1 9 -7 23 -15 33 -8 9 -11 19 -8 22 3 3
-12 23 -34 44 -21 21 -39 43 -39 50 0 7 -11 28 -25 45 -13 18 -21 35 -18 39 4
3 -2 6 -13 6 -30 1 -77 47 -71 70 3 11 1 20 -3 20 -5 0 -12 10 -16 22 -16 52
-89 118 -131 118 -8 0 -28 9 -44 21 -16 11 -69 33 -118 49 -49 16 -120 43
-157 60 -88 40 -100 45 -153 61 -25 7 -57 24 -72 36 -15 13 -34 23 -42 23 -9
0 -19 5 -22 10 -4 6 -11 8 -16 4 -12 -7 -7 19 6 29 15 11 -16 27 -47 23 -15
-2 -27 -1 -26 3 5 42 -34 86 -63 71 -23 -13 -62 -13 -54 0 3 6 -3 10 -14 10
-12 0 -21 7 -21 16 0 8 5 12 10 9 13 -8 50 4 50 16 0 6 -6 7 -12 3 -9 -6 -9
-3 0 9 8 9 11 25 7 37 -3 11 -4 20 -1 20 3 0 10 -15 15 -32 7 -25 9 -28 10
-11 1 17 5 21 19 16 9 -3 14 -2 9 2 -4 5 -1 15 6 24 23 26 27 49 12 61 -8 7
-12 16 -10 21 3 4 -3 12 -12 18 -15 8 -16 12 -4 23 10 9 12 10 7 1 -11 -19 5
-15 20 5 12 15 13 14 14 -15 0 -38 5 -40 33 -15 11 9 17 11 13 5 -5 -9 -2 -11
8 -7 9 3 16 12 16 20 0 8 4 14 9 14 5 0 17 3 27 7 12 4 15 3 10 -5 -5 -8 -2
-10 9 -6 12 5 15 17 13 42 -2 31 0 37 22 42 34 8 43 53 9 48 -12 -2 -27 -12
-33 -23 -6 -11 -14 -22 -17 -25 -3 -3 -8 -13 -12 -22 -8 -22 -47 -12 -47 13 0
11 -5 19 -11 19 -5 0 -8 -4 -5 -8 3 -5 -1 -9 -9 -9 -8 0 -16 4 -16 9 -1 4 -2
14 -3 21 -4 24 25 66 45 67 4 0 6 -11 5 -24 -1 -18 -4 -22 -13 -14 -9 7 -11 4
-10 -10 0 -10 8 -19 17 -18 9 1 14 -6 12 -16 -3 -20 23 -25 34 -6 4 6 9 34 11
62 4 51 21 76 35 53 5 -8 8 -7 8 4 0 9 -7 20 -16 23 -23 9 -26 8 -18 -6 5 -9
2 -8 -9 1 -15 12 -20 11 -37 -4 -15 -14 -23 -15 -33 -6 -8 6 -16 8 -19 5 -3
-3 -9 7 -12 21 -8 31 -31 28 -30 -4 0 -14 -5 -21 -18 -21 -10 0 -18 -6 -18
-12 0 -7 -5 -5 -11 5 -6 9 -14 15 -20 12 -5 -4 -9 0 -9 8 0 10 7 13 20 10 11
-3 20 -1 20 3 0 5 14 25 31 44 23 26 38 34 57 33 27 -3 27 -3 4 9 -13 6 -21
17 -18 23 2 7 0 18 -4 26 -12 18 6 38 29 32 13 -3 17 -11 13 -29 -5 -28 12
-32 36 -8 12 13 17 14 20 4 3 -8 12 1 21 21 21 44 61 54 61 15 0 -29 5 -32 25
-12 13 13 20 43 17 79 -2 21 -30 23 -38 2 -9 -23 -29 -18 -44 11 -8 14 -22 30
-32 35 -10 5 -18 17 -18 26 0 13 3 13 15 3 12 -10 15 -10 15 1 0 12 2 12 9 0
5 -8 7 -20 4 -28 -3 -7 0 -13 6 -13 7 0 14 7 17 15 4 8 12 15 20 15 8 0 15 5
15 10 1 6 2 16 3 23 1 6 -4 19 -12 29 -7 9 -12 25 -11 35 2 10 0 24 -4 31 -5
7 -2 14 7 18 9 3 14 9 11 13 -7 13 77 55 110 54 16 0 29 -4 28 -10 -1 -5 15
-8 35 -8 31 2 37 6 40 27 2 14 -4 31 -13 38 -14 11 -21 11 -45 -3 -15 -9 -33
-17 -38 -17 -13 0 -5 74 8 78 6 2 7 8 4 14 -3 5 3 12 15 15 21 5 21 13 5 74
-3 12 1 16 13 15 11 0 19 7 21 21 2 14 16 27 44 37 23 10 42 25 45 36 3 11 10
20 16 20 6 0 8 3 4 6 -3 4 4 15 16 25 l22 18 -22 21 c-26 24 -30 50 -8 50 8 0
15 4 15 9 0 5 11 11 25 13 14 3 22 1 19 -4 -4 -6 2 -8 12 -6 11 2 18 11 18 20
-1 10 4 14 12 11 8 -3 11 -9 8 -14 -7 -13 19 -7 28 6 13 17 9 25 -12 25 -11 0
-20 5 -20 10 0 6 6 10 14 10 8 0 16 14 19 33 5 32 -2 53 -10 30 -8 -22 -28
-14 -29 10 -1 15 4 23 15 23 9 1 23 4 31 8 9 3 24 -1 35 -10 11 -8 15 -13 8
-10 -7 4 -9 -1 -6 -13 8 -30 31 -33 49 -6 9 14 24 25 33 25 9 0 21 10 26 23 8
16 17 21 38 19 19 -2 27 2 27 13 0 8 5 15 11 15 5 0 7 -6 3 -12 -5 -9 -2 -9 9
1 14 11 17 11 17 0 0 -11 2 -11 9 0 8 12 12 12 25 2 12 -10 19 -11 29 -2 10 8
19 7 32 -3 18 -13 44 -11 55 4 3 4 16 11 29 15 18 5 22 4 16 -5 -6 -9 -4 -11
4 -5 8 4 18 -1 28 -14 10 -14 19 -19 26 -13 14 10 49 9 91 -3 20 -5 31 -4 36
5 7 11 14 10 35 -4 19 -13 30 -14 39 -7 10 8 17 7 27 -5 18 -21 110 -66 126
-60 6 3 17 -1 23 -9 6 -7 19 -11 30 -8 14 4 21 -1 25 -20 l7 -25 29 31 c23 26
28 28 29 14 0 -10 7 -25 15 -33 13 -14 16 -14 21 0 3 9 12 16 20 16 7 0 20 12
28 28 l15 27 1 -29 c0 -24 2 -26 15 -16 12 10 16 6 23 -22 l9 -33 13 30 c7 17
16 44 21 60 l8 30 -2 -30 c-2 -41 17 -73 35 -58 7 6 23 14 36 17 16 6 22 3 22
-8 0 -20 7 -20 27 0 12 12 18 12 23 3 4 -6 13 -8 20 -4 7 4 16 2 21 -6 7 -11
9 -11 9 -1 0 15 51 85 57 78 2 -2 -3 -20 -11 -40 -8 -20 -12 -36 -8 -36 3 0 1
-5 -6 -12 -20 -20 -14 -33 7 -14 10 9 25 14 34 11 10 -4 17 1 22 14 8 26 29
16 22 -10 -6 -21 4 -18 42 15 l24 21 -16 -25 c-9 -13 -17 -28 -17 -32 0 -13
60 14 78 36 15 19 65 56 76 56 2 0 2 -10 -2 -22 -5 -23 -5 -23 16 -4 12 11 22
14 22 9 0 -6 -7 -16 -15 -23 -22 -18 -11 -24 17 -10 22 11 22 10 4 -4 -11 -9
-26 -16 -33 -16 -17 0 -17 -16 1 -23 8 -3 20 0 26 8 6 8 30 23 53 35 l42 22
-22 -24 c-26 -27 -31 -47 -8 -28 9 7 18 10 21 8 3 -3 26 0 52 8 35 10 43 10
31 1 -15 -12 -33 -47 -23 -47 3 0 15 10 27 23 12 13 16 16 10 7 -24 -31 -13
-34 19 -4 l32 29 -22 -29 c-26 -34 -23 -42 10 -26 20 11 20 9 -6 -19 -20 -21
-25 -31 -15 -31 8 0 19 4 24 9 6 4 24 11 40 15 28 6 29 5 11 -9 -11 -8 -14
-15 -8 -15 7 0 20 9 29 19 12 15 21 17 34 10 10 -5 26 -6 36 -3 17 5 17 5 1
-8 -9 -7 -25 -19 -35 -26 -17 -12 -17 -13 2 -6 11 3 29 8 40 11 18 4 18 3 3
-7 -28 -18 -21 -30 10 -15 34 16 112 26 112 14 0 -5 9 -4 20 3 16 11 23 10 37
-5 15 -15 16 -19 3 -27 -8 -5 -17 -7 -21 -4 -4 2 -11 -1 -15 -7 -5 -9 0 -10
17 -5 67 19 80 19 73 2 -4 -11 -1 -16 12 -16 15 0 16 -2 5 -9 -11 -7 -8 -10
10 -16 22 -7 22 -8 -7 -20 -29 -13 -28 -13 22 -14 41 -1 56 -6 76 -26 14 -13
36 -29 49 -35 24 -10 24 -10 -3 -5 -14 3 -37 1 -50 -4 l-23 -10 23 0 c12 -1
22 -5 22 -10 0 -5 8 -8 17 -7 10 0 19 -7 21 -17 2 -11 18 -32 35 -49 18 -16
26 -27 20 -23 -30 15 -10 -15 27 -40 47 -33 52 -42 10 -20 -38 20 -43 19 -30
-4 7 -14 7 -20 -1 -23 -15 -5 67 -88 86 -88 8 0 15 -4 15 -10 0 -5 -7 -10 -15
-10 -17 0 -39 -36 -26 -44 5 -4 12 -24 16 -45 6 -38 31 -68 85 -105 l25 -17
-25 3 c-14 2 -31 7 -37 11 -20 13 -15 0 21 -50 18 -27 44 -68 57 -91 21 -39
73 -81 85 -69 3 2 -18 30 -47 61 -54 59 -56 67 -11 39 25 -16 26 -16 14 -1
-14 18 -7 43 9 33 5 -3 6 1 2 10 -5 16 -3 16 26 0 38 -19 47 -15 32 13 -16 31
-14 35 16 27 23 -5 25 -4 14 9 -7 9 -17 14 -21 11 -4 -3 -13 1 -19 9 -9 11 -5
13 23 9 30 -3 35 -1 33 18 -1 12 -12 26 -24 32 -24 11 -31 27 -12 27 5 0 7 5
4 10 -3 6 -13 10 -21 10 -10 0 -12 -5 -8 -12 5 -9 2 -9 -9 1 -9 7 -17 22 -17
33 0 15 3 18 13 10 7 -6 34 -13 60 -16 l48 -6 -31 40 c-17 22 -37 40 -43 40
-8 0 -7 4 1 12 19 19 14 28 -23 44 -19 8 -35 19 -35 24 0 15 36 12 50 -5 12
-14 43 -16 55 -3 4 3 -1 20 -10 38 -9 17 -14 38 -11 45 3 8 -2 19 -9 25 -8 7
-12 16 -9 22 3 5 0 15 -6 24 -10 11 -16 12 -26 3 -11 -9 -14 -6 -14 14 0 19 4
25 14 21 23 -9 32 52 12 84 -4 7 -4 21 -1 32 4 12 2 20 -5 20 -8 0 -11 11 -7
33 3 24 -2 39 -19 60 -15 17 -24 41 -24 61 0 47 -19 95 -42 107 -16 8 -19 8
-13 -1 5 -8 3 -11 -5 -8 -19 6 -62 128 -55 159 4 17 1 30 -9 38 -8 7 -22 32
-31 56 -10 26 -23 42 -32 41 -9 0 -20 12 -27 30 -6 17 -28 47 -49 66 -20 20
-42 50 -48 67 -7 20 -16 30 -25 27 -7 -3 -16 0 -20 6 -4 7 -3 8 4 4 7 -4 12
-1 12 9 0 9 5 13 10 10 21 -13 8 12 -24 47 -35 38 -59 77 -70 111 -4 13 -12
17 -26 12 -15 -5 -21 0 -26 22 -3 15 -12 33 -20 39 -21 17 -61 104 -74 164 -7
30 -17 62 -22 70 -8 12 -9 12 -4 -2 3 -10 3 -18 0 -18 -12 0 -70 48 -125 102
-35 36 -63 56 -72 52 -15 -5 -29 16 -32 48 -3 27 -26 51 -38 39 -7 -7 -6 -15
3 -26 7 -8 10 -18 7 -21 -10 -10 -46 16 -61 44 -9 15 -15 20 -16 13 0 -23 -16
-3 -50 64 -17 33 -28 49 -25 35 16 -68 15 -75 -6 -35 -23 43 -58 85 -71 85 -4
0 -8 -22 -8 -50 0 -37 -4 -50 -14 -50 -20 0 -54 46 -61 84 -5 25 -16 35 -56
55 -35 16 -49 29 -49 43 0 16 -3 18 -13 9 -8 -6 -17 -8 -20 -5 -4 4 -18 -1
-31 -10 -20 -13 -30 -14 -51 -4 -26 12 -32 23 -15 33 14 9 2 31 -23 42 -13 6
-50 16 -82 23 -33 7 -68 20 -77 28 -10 8 -42 16 -72 17 -62 3 -86 20 -86 60 0
17 -5 25 -12 22 -7 -2 -21 0 -30 5 -14 6 -18 5 -18 -7 0 -26 -45 -40 -77 -26
-16 7 -49 19 -75 25 l-47 13 6 -30 c6 -27 5 -29 -16 -18 -11 7 -21 15 -21 20
0 18 -75 60 -98 55 -12 -4 -22 -9 -22 -13 0 -3 -10 -6 -22 -7 -13 0 -38 -4
-55 -8 -28 -6 -32 -5 -27 8 4 12 0 16 -16 16 -11 0 -18 5 -15 10 7 11 -19 12
-50 1z m395 -73 c0 -13 -32 -6 -37 9 -3 7 3 9 16 6 12 -3 21 -10 21 -15z
m-695 -78 c-3 -5 -11 -10 -16 -10 -6 0 -7 5 -4 10 3 6 11 10 16 10 6 0 7 -4 4
-10z m1025 0 c8 -5 12 -12 9 -15 -8 -8 -39 5 -39 16 0 11 11 11 30 -1z m548
-230 c9 0 28 -47 36 -89 5 -30 4 -32 -10 -20 -26 21 -44 66 -43 106 1 21 3 30
6 21 2 -10 8 -18 11 -18z m-438 -38 c0 -13 -3 -12 -15 4 -19 25 -19 40 0 24 8
-7 15 -20 15 -28z m600 -137 c11 -13 10 -14 -4 -9 -9 3 -16 10 -16 15 0 13 6
11 20 -6z m-2763 -277 c-3 -8 -6 -5 -6 6 -1 11 2 17 5 13 3 -3 4 -12 1 -19z
m2910 -70 c-3 -8 -6 -5 -6 6 -1 11 2 17 5 13 3 -3 4 -12 1 -19z m194 -25 c13
-16 12 -17 -3 -4 -10 7 -18 15 -18 17 0 8 8 3 21 -13z m-3263 -90 c-10 -2 -28
-2 -40 0 -13 2 -5 4 17 4 22 1 32 -1 23 -4z m162 -83 c-8 -5 -19 -10 -25 -10
-5 0 -3 5 5 10 8 5 20 10 25 10 6 0 3 -5 -5 -10z m3238 -25 c-3 -3 -9 2 -12
12 -6 14 -5 15 5 6 7 -7 10 -15 7 -18z m-441 -107 c-3 -8 -6 -5 -6 6 -1 11 2
17 5 13 3 -3 4 -12 1 -19z m451 -14 c-3 -14 -5 -12 -10 9 -3 19 -2 25 4 19 6
-6 8 -18 6 -28z m-401 -56 c-3 -8 -6 -5 -6 6 -1 11 2 17 5 13 3 -3 4 -12 1
-19z m422 -68 c0 -8 -6 0 -14 19 -8 18 -15 36 -15 40 1 13 29 -45 29 -59z
m-410 18 c0 -28 -2 -30 -9 -13 -12 28 -12 45 0 45 6 0 10 -15 9 -32z m312 -40
c-4 -35 -6 -38 -9 -15 -3 26 3 57 10 57 2 0 1 -19 -1 -42z m266 -10 c-3 -8 -6
-5 -6 6 -1 11 2 17 5 13 3 -3 4 -12 1 -19z m-1087 -3 c0 -8 -4 -15 -10 -15 -5
0 -7 7 -4 15 4 8 8 15 10 15 2 0 4 -7 4 -15z m897 -67 c-2 -13 -4 -3 -4 22 0
25 2 35 4 23 2 -13 2 -33 0 -45z m-910 -20 c-8 -56 -26 -113 -42 -133 -19 -24
-18 -18 14 88 26 82 36 98 28 45z m1173 -49 c12 -35 40 -96 61 -136 41 -79 45
-88 29 -78 -5 3 -10 -2 -11 -12 0 -12 -3 -10 -8 8 -5 14 -16 42 -25 62 -9 20
-23 52 -31 71 -8 19 -15 38 -15 43 0 5 -13 23 -30 39 -27 27 -43 73 -20 59 6
-3 10 -1 10 5 0 25 19 -3 40 -61z m-4130 31 c-20 -13 -33 -13 -25 0 3 6 14 10
23 10 15 0 15 -2 2 -10z m2090 -33 c0 -26 -15 -12 -25 23 -7 22 -6 23 9 11 9
-7 16 -23 16 -34z m1667 11 c-3 -8 -6 -5 -6 6 -1 11 2 17 5 13 3 -3 4 -12 1
-19z m30 0 c-3 -8 -6 -5 -6 6 -1 11 2 17 5 13 3 -3 4 -12 1 -19z m-2238 -83
l0 -20 -9 20 c-5 11 -9 27 -9 35 -1 13 0 13 9 0 5 -8 9 -24 9 -35z m611 -5 c0
-5 -2 -10 -4 -10 -3 0 -8 5 -11 10 -3 6 -1 10 4 10 6 0 11 -4 11 -10z m-620
-46 c0 -14 -4 -23 -10 -19 -5 3 -10 15 -10 26 0 10 5 19 10 19 6 0 10 -12 10
-26z m1577 4 c-3 -8 -6 -5 -6 6 -1 11 2 17 5 13 3 -3 4 -12 1 -19z m1128 -58
c3 -5 1 -10 -4 -10 -6 0 -11 5 -11 10 0 6 2 10 4 10 3 0 8 -4 11 -10z m-955
-14 c0 -3 -4 -8 -10 -11 -5 -3 -10 -1 -10 4 0 6 5 11 10 11 6 0 10 -2 10 -4z
m180 -20 c0 -3 -4 -8 -10 -11 -5 -3 -10 -1 -10 4 0 6 5 11 10 11 6 0 10 -2 10
-4z m-3620 -36 c-8 -5 -22 -9 -30 -9 -10 0 -8 3 5 9 27 12 43 12 25 0z m4387
-12 c-3 -8 -6 -5 -6 6 -1 11 2 17 5 13 3 -3 4 -12 1 -19z m-4057 -13 c0 -2
-10 -10 -22 -16 -21 -11 -22 -11 -9 4 13 16 31 23 31 12z m-58 -48 c-6 -7 -33
-28 -59 -46 l-48 -34 50 46 c46 43 81 64 57 34z m4138 -33 c0 -8 -4 -12 -10
-9 -5 3 -10 10 -10 16 0 5 5 9 10 9 6 0 10 -7 10 -16z m-3010 -48 c0 -2 -7
-17 -15 -32 -15 -29 -22 -13 -9 20 5 14 24 23 24 12z m-1175 -15 c-29 -26
-126 -101 -131 -101 -14 0 33 44 81 76 50 33 67 42 50 25z m1130 -11 c3 -5 2
-10 -4 -10 -5 0 -13 5 -16 10 -3 6 -2 10 4 10 5 0 13 -4 16 -10z m-1260 -110
c-3 -5 -16 -10 -28 -9 -21 0 -21 1 -2 9 28 12 37 12 30 0z m1187 -32 c-6 -6
-15 -7 -22 -3 -8 5 -6 13 7 27 16 18 18 19 21 3 2 -9 -1 -22 -6 -27z m-1086
-67 c-3 -4 -20 -14 -38 -21 -18 -7 -42 -20 -53 -29 -18 -15 -19 -15 -6 2 8 10
32 26 55 36 50 23 48 23 42 12z m-46 -65 c0 -2 -8 -10 -17 -17 -16 -13 -17
-12 -4 4 13 16 21 21 21 13z m4135 -6 c3 -5 2 -10 -4 -10 -5 0 -13 5 -16 10
-3 6 -2 10 4 10 5 0 13 -4 16 -10z m125 -30 c0 -5 -4 -10 -9 -10 -6 0 -13 5
-16 10 -3 6 1 10 9 10 9 0 16 -4 16 -10z m-36 -98 c-6 -4 -13 -15 -17 -24 -7
-19 -37 -25 -37 -8 0 5 9 15 20 22 11 7 20 19 20 27 0 12 3 12 12 3 9 -9 10
-15 2 -20z m-3434 -101 c0 -20 -17 -37 -27 -28 -7 8 7 47 18 47 5 0 9 -9 9
-19z m123 -65 c3 -7 -3 -20 -14 -29 -10 -9 -19 -15 -19 -12 0 14 -4 21 -19 33
-14 11 -13 12 7 7 13 -4 22 -2 22 4 0 16 17 14 23 -3z m-183 -172 c0 -8 -11
-27 -25 -41 l-24 -27 6 25 c4 13 13 29 21 35 9 7 12 16 7 24 -5 9 -4 11 3 6 7
-4 12 -14 12 -22z m32 -39 c0 -5 -5 -11 -11 -13 -6 -2 -11 4 -11 13 0 9 5 15
11 13 6 -2 11 -8 11 -13z m-38 -127 c1 -13 7 -22 13 -21 6 1 10 -5 8 -15 -2
-9 -4 -23 -4 -29 -1 -7 -7 -13 -15 -13 -9 0 -12 7 -9 20 4 16 -1 23 -26 33
-35 13 -35 26 -1 44 28 14 32 12 34 -19z m123 -135 c1 -24 0 -25 -6 -8 -7 17
-6 35 2 35 2 0 3 -12 4 -27z m-153 -315 c-3 -4 -9 -8 -15 -8 -5 0 -9 4 -9 8 0
5 7 9 15 9 8 0 12 -4 9 -9z m-338 -230 c5 -8 2 -9 -9 -5 -10 3 -17 2 -17 -3 0
-6 -8 -10 -17 -10 -15 0 -14 2 3 15 23 18 31 18 40 3z m21 -74 c-3 -3 -12 -4
-19 -1 -8 3 -5 6 6 6 11 1 17 -2 13 -5z m111 -27 c8 -6 12 -5 12 2 0 21 18 11
24 -14 4 -14 11 -25 16 -25 14 0 12 14 -2 29 -23 22 55 -15 79 -39 17 -17 39
-23 83 -26 l59 -4 -14 27 c-16 30 0 49 16 20 5 -9 17 -13 29 -10 11 3 38 -4
60 -16 47 -24 61 -26 54 -7 -4 11 3 12 38 4 24 -6 59 -16 78 -24 19 -7 44 -14
54 -16 11 -2 21 -8 23 -14 3 -8 -25 -12 -84 -14 -270 -9 -374 -16 -403 -28
-14 -5 -44 -10 -68 -10 -25 -1 -49 -7 -58 -17 -10 -10 -23 -13 -33 -9 -9 4
-41 13 -73 19 -31 7 -61 16 -67 19 -7 4 -8 1 -5 -8 4 -10 1 -16 -8 -16 -20 0
-38 21 -38 43 0 10 -4 16 -8 13 -5 -3 -9 1 -9 9 0 11 5 10 25 -3 19 -12 25
-13 32 -2 4 7 13 9 20 5 9 -5 11 -4 6 3 -4 7 -13 12 -21 12 -7 0 -16 7 -19 16
-5 12 -1 14 17 8 12 -3 33 -14 47 -24 14 -10 36 -20 50 -24 29 -8 27 -6 -59
54 -57 39 -61 47 -28 45 29 -2 79 -23 55 -24 -10 -1 -15 -7 -13 -13 3 -8 24
-13 50 -13 44 -1 45 0 24 16 l-22 16 25 5 c15 3 48 -6 84 -24 60 -28 90 -35
79 -19 -3 5 -19 12 -35 16 -17 4 -30 11 -30 16 0 5 -8 13 -17 17 -24 10 -93
53 -93 58 0 5 52 -17 68 -29z m-293 -107 c3 -5 1 -10 -4 -10 -6 0 -11 5 -11
10 0 6 2 10 4 10 3 0 8 -4 11 -10z m1065 -221 c16 -18 30 -35 30 -38 1 -3 21
-22 45 -41 36 -28 45 -40 43 -63 l-2 -29 -18 22 c-10 12 -18 17 -18 11 0 -6
-10 -10 -22 -9 -13 0 -57 -2 -99 -7 -89 -8 -105 2 -66 43 33 36 57 85 57 117
0 33 13 32 50 -6z m-80 1 c0 -8 -25 -20 -41 -20 -5 0 -9 6 -9 14 0 8 10 14 25
14 14 0 25 -4 25 -8z m-334 -33 c6 -18 14 -40 19 -49 4 -12 3 -18 -5 -18 -19
0 -71 41 -65 51 4 5 -1 9 -9 9 -9 0 -16 8 -16 18 0 14 8 19 33 20 28 1 34 -3
43 -31z m269 13 c0 -22 -39 -19 -43 3 -3 15 1 18 20 15 12 -2 23 -10 23 -18z
m65 -10 c0 -5 -4 -10 -10 -10 -5 0 -10 5 -10 10 0 6 5 10 10 10 6 0 10 -4 10
-10z m27 -182 c-2 -7 2 -21 11 -30 17 -20 14 -22 -46 -32 -24 -4 -34 -2 -38 9
-4 8 -12 15 -20 15 -8 0 -14 10 -14 23 0 21 5 23 56 25 42 2 55 -1 51 -10z
m-418 -7 c9 -6 24 -5 39 0 20 8 30 5 47 -11 21 -19 23 -20 29 -4 6 16 7 16 20
-1 9 -13 15 -15 20 -7 10 16 26 15 26 0 0 -23 48 -59 85 -65 32 -5 34 -7 18
-19 -17 -13 -17 -15 0 -25 9 -5 15 -14 12 -20 -4 -5 1 -9 10 -9 9 0 13 5 10
10 -3 6 1 10 10 10 9 0 14 -4 11 -8 -6 -11 55 -2 70 9 11 9 24 2 24 -12 0 -8
-76 -25 -101 -22 -9 2 -19 -6 -22 -17 -3 -11 -1 -18 4 -14 5 3 9 0 9 -6 0 -6
10 -8 28 -3 15 3 35 6 45 5 9 0 17 4 17 9 0 5 15 3 33 -4 17 -8 37 -12 44 -10
15 5 26 -14 13 -22 -6 -4 -18 -1 -26 6 -13 11 -18 10 -27 -6 -15 -26 -19 -67
-8 -83 4 -8 26 -16 49 -19 39 -5 69 -33 36 -33 -11 0 -14 -5 -10 -16 5 -14 4
-15 -9 -4 -12 10 -15 10 -15 0 0 -9 -9 -11 -30 -6 -17 3 -30 1 -30 -4 0 -6 17
-10 38 -10 34 -1 35 -2 18 -15 -21 -16 -12 -39 13 -30 9 3 1 -7 -16 -22 -39
-34 -42 -53 -8 -53 14 0 25 -4 25 -10 0 -5 11 -12 25 -16 14 -3 25 -10 25 -16
0 -5 -4 -6 -10 -3 -5 3 -10 -1 -10 -9 0 -17 9 -20 34 -10 9 3 13 10 10 15 -3
5 4 9 14 9 22 0 37 -26 21 -35 -14 -9 0 -25 22 -25 26 0 20 -21 -9 -36 -12 -6
-19 -13 -16 -17 3 -3 -27 -16 -67 -28 -41 -12 -81 -28 -90 -35 -8 -8 -23 -14
-32 -14 -9 0 -17 -4 -17 -9 0 -5 -11 -12 -25 -15 -13 -3 -47 -20 -75 -36 -28
-17 -53 -30 -57 -30 -12 0 -102 -64 -107 -76 -3 -8 -12 -14 -21 -14 -8 0 -15
-7 -15 -15 0 -8 -7 -15 -15 -15 -8 0 -15 -4 -15 -9 0 -5 -13 -12 -29 -16 -20
-4 -28 -11 -24 -21 4 -10 -2 -14 -21 -14 -14 0 -26 -4 -26 -8 0 -16 -48 -33
-56 -20 -5 7 -11 5 -20 -7 -7 -10 -27 -18 -43 -19 -16 -1 -29 -3 -29 -6 1 -22
-7 -28 -43 -32 -40 -4 -41 -3 -35 24 4 20 1 28 -9 28 -18 0 -30 -20 -26 -44 3
-22 -15 -36 -46 -36 -13 0 -32 -9 -44 -21 -15 -15 -24 -18 -32 -10 -8 8 -16 6
-28 -5 -16 -15 -17 -14 -12 8 l6 23 -20 -25 c-36 -45 -51 -85 -49 -128 3 -49
-1 -56 -22 -39 -13 10 -15 9 -9 -7 6 -16 5 -17 -8 -6 -10 8 -15 9 -15 1 0 -6
-4 -11 -9 -11 -11 0 5 57 22 78 6 8 6 12 -1 12 -6 0 -14 -4 -17 -10 -3 -5 -16
-15 -28 -22 -20 -10 -21 -10 -8 5 7 9 11 23 8 32 -4 9 5 21 23 32 16 9 44 37
62 63 18 25 39 50 48 57 8 7 10 12 4 13 -11 0 -25 -14 -91 -93 -13 -15 -29
-27 -35 -27 -9 0 -8 3 2 10 8 5 11 10 5 10 -5 0 1 7 13 16 12 8 22 24 22 34 0
11 12 26 28 34 32 17 58 44 49 52 -3 3 -21 -6 -40 -20 -40 -31 -59 -35 -26 -5
24 20 24 20 1 9 -12 -6 -28 -8 -34 -4 -6 4 -9 3 -6 -2 3 -5 -8 -19 -23 -32
-16 -13 -29 -19 -29 -13 0 18 5 26 13 24 4 -2 7 3 7 11 0 20 48 56 65 50 7 -3
16 3 20 15 3 12 11 21 17 21 5 0 8 6 5 14 -3 8 -1 16 6 19 8 2 8 5 -1 11 -8 5
-19 -4 -29 -23 -19 -32 -50 -47 -50 -25 0 8 6 14 14 14 7 0 13 9 13 20 0 11 5
19 12 17 7 -1 12 4 13 11 0 7 7 17 15 22 12 7 11 10 -5 16 -10 4 -30 17 -43
28 l-24 21 24 6 c21 7 21 7 -5 8 -16 1 -26 5 -22 11 3 6 2 10 -4 10 -6 0 -8
-12 -5 -29 4 -16 1 -32 -5 -35 -6 -4 -11 -2 -11 5 0 10 -3 10 -12 1 -17 -17
-29 -15 -22 3 4 8 1 15 -5 15 -6 0 -11 -4 -11 -10 0 -5 -8 -10 -17 -10 -14 0
-12 4 7 25 13 14 26 22 29 18 11 -15 31 -13 31 3 0 17 19 38 38 41 6 2 12 -3
12 -11 0 -8 4 -17 9 -20 12 -8 41 4 41 16 0 5 -3 7 -8 4 -4 -2 -12 7 -19 20
-8 17 -8 24 0 24 6 0 8 2 5 5 -3 3 -17 1 -31 -4 -19 -8 -27 -7 -31 5 -3 8 -13
14 -22 14 -11 0 -15 6 -11 19 3 11 -3 28 -14 40 -11 11 -19 24 -19 29 0 5 -10
17 -22 26 l-23 17 23 -6 c25 -7 26 -6 11 32 -5 15 -7 24 -3 21 4 -4 15 -3 25
3 14 7 19 6 19 -2 0 -16 15 -1 15 14 1 17 -21 37 -40 37 -10 0 -13 5 -9 12 5
8 2 9 -10 5 -10 -4 -25 -7 -34 -7 -12 0 -13 -3 -4 -12 10 -10 7 -15 -9 -24
-19 -10 -26 -7 -56 24 l-34 34 27 14 c14 8 30 11 35 8 5 -3 17 9 27 25 10 17
22 28 25 24 4 -3 2 -12 -4 -20 -9 -10 -8 -13 1 -13 7 0 10 -7 6 -15 -5 -15 -1
-17 29 -17 30 0 36 2 30 12 -4 7 3 9 22 5 l28 -5 -28 11 c-15 6 -25 15 -22 19
8 14 -18 50 -35 50 -13 0 -13 -1 0 -10 12 -8 10 -10 -8 -10 -13 0 -20 4 -17
10 3 6 -1 7 -9 4 -9 -3 -16 -12 -16 -20 0 -8 -5 -14 -11 -14 -6 0 -9 7 -5 15
3 8 0 15 -7 15 -26 0 19 20 47 20 24 0 26 2 16 15 -13 16 -4 39 12 29 8 -5 9
-1 5 9 -4 10 -10 24 -13 32 -3 8 -1 15 5 15 6 0 11 -7 11 -16 0 -8 4 -13 9
-10 5 4 12 0 14 -6 3 -7 6 0 6 16 1 20 5 27 15 23 8 -3 20 1 27 9 11 13 9 14
-14 9 -21 -6 -27 -4 -27 10 0 9 4 14 9 11 15 -10 42 5 39 22 -2 8 2 17 9 19 7
3 10 -4 7 -19 -2 -13 -2 -17 2 -10 10 21 24 13 24 -13 0 -28 12 -32 30 -10 9
10 17 12 23 6 6 -6 18 -4 33 6 22 14 24 14 24 -1 0 -9 -5 -16 -12 -16 -7 0 5
-9 27 -20 43 -22 59 -25 50 -11 -13 22 49 34 107 22 24 -5 36 -3 45 8 6 9 15
13 19 9 4 -4 1 -14 -6 -23 -13 -16 -9 -18 29 -15 14 1 21 -2 17 -9 -4 -6 -4
-16 0 -23 5 -8 10 -6 14 8 4 10 13 19 21 20 52 4 52 4 39 19 -7 8 -16 13 -20
10 -5 -3 -11 -1 -15 5 -3 5 -1 10 5 10 7 0 10 6 7 13 -3 7 1 23 8 36 9 18 22
24 51 26 21 1 45 -2 53 -9 11 -8 15 -8 18 2 3 6 13 12 24 12 10 0 19 5 19 10
0 6 -9 10 -20 10 -11 0 -20 7 -20 15 0 8 -4 15 -10 15 -5 0 -10 -7 -10 -16 0
-14 -3 -14 -15 -4 -13 11 -13 15 -3 22 10 8 10 11 1 15 -21 8 -15 26 7 20 11
-3 20 0 20 6 0 7 4 6 9 -2 11 -17 41 -7 41 14 0 9 -9 15 -24 15 -13 0 -29 6
-35 14 -6 7 -25 16 -41 20 -17 3 -30 10 -30 16 0 12 40 13 59 1z m271 -10 c0
-6 -4 -13 -10 -16 -5 -3 -10 1 -10 9 0 9 5 16 10 16 6 0 10 -4 10 -9z m170
-61 c0 -16 -35 -29 -60 -23 -22 6 -20 8 15 19 22 6 41 12 43 13 1 1 2 -3 2 -9z
m-105 -27 c-2 -10 -4 -20 -4 -23 -2 -7 -21 23 -21 33 0 4 6 7 14 7 8 0 13 -8
11 -17z m-901 -35 c-18 -20 -18 -21 -1 -15 11 4 24 1 32 -7 12 -12 11 -15 -5
-19 -12 -3 -18 -1 -14 5 4 6 -1 8 -15 3 -14 -4 -21 -2 -21 6 0 12 29 49 38 49
3 0 -3 -10 -14 -22z m121 -5 c-11 -8 -19 -19 -17 -24 1 -5 -9 -9 -23 -9 -34 0
-22 28 19 45 37 16 49 9 21 -12z m-190 -43 c3 -5 -1 -10 -10 -10 -9 0 -13 5
-10 10 3 6 8 10 10 10 2 0 7 -4 10 -10z m155 -14 c0 -8 6 -17 13 -20 6 -3 0
-3 -15 0 -19 4 -28 2 -28 -7 0 -7 -3 -10 -6 -7 -7 7 18 48 28 48 5 0 8 -6 8
-14z m40 4 c0 -5 -4 -10 -9 -10 -6 0 -13 5 -16 10 -3 6 1 10 9 10 9 0 16 -4
16 -10z m70 -9 c0 -16 -28 -20 -34 -5 -4 9 1 14 14 14 11 0 20 -4 20 -9z m30
-9 c0 -4 -9 -13 -20 -20 -22 -13 -27 -3 -8 16 14 14 28 16 28 4z m-318 -64
c-7 -7 -12 -8 -12 -2 0 14 12 26 19 19 2 -3 -1 -11 -7 -17z m1135 16 c-3 -3
-12 -4 -19 -1 -8 3 -5 6 6 6 11 1 17 -2 13 -5z m-1182 -64 c-3 -5 0 -10 7 -10
8 0 6 -5 -5 -11 -24 -14 -34 -4 -17 16 14 17 25 20 15 5z m-115 -194 c0 -2 -8
-10 -17 -17 -16 -13 -17 -12 -4 4 13 16 21 21 21 13z m174 -35 c3 -5 -2 -11
-12 -13 -11 -3 -19 0 -19 8 0 16 23 19 31 5z m-153 -24 c-7 -7 -18 -7 -33 0
-20 9 -20 10 10 10 22 0 29 -4 23 -10z m1464 -45 c-6 -7 -34 11 -29 19 3 5 11
3 19 -4 7 -6 12 -13 10 -15z m-1409 9 c-4 -5 0 -12 6 -15 7 -3 2 -3 -11 0 -18
5 -29 0 -43 -17 -11 -13 -17 -18 -13 -11 3 6 0 12 -7 12 -7 1 5 9 27 20 47 23
48 23 41 11z m35 -64 c-10 -9 -11 -8 -5 6 3 10 9 15 12 12 3 -3 0 -11 -7 -18z
m-111 -31 c0 -2 -8 -10 -17 -17 -16 -13 -17 -12 -4 4 13 16 21 21 21 13z m30
-10 c0 -2 -8 -10 -17 -17 -16 -13 -17 -12 -4 4 13 16 21 21 21 13z m30 -10 c0
-8 -7 -16 -15 -20 -13 -4 -14 -2 -5 14 13 23 20 26 20 6z m100 4 c0 -5 -4 -10
-10 -10 -5 0 -10 5 -10 10 0 6 5 10 10 10 6 0 10 -4 10 -10z m-65 -10 c-3 -5
-12 -10 -18 -10 -7 0 -6 4 3 10 19 12 23 12 15 0z m77 -19 c-10 -6 -7 -10 13
-15 28 -7 27 -7 -26 -43 -61 -40 -105 -52 -87 -23 6 9 20 23 32 30 21 13 21
13 2 -9 -25 -28 -16 -36 12 -11 12 12 22 31 22 45 0 22 11 33 35 34 6 0 4 -3
-3 -8z m-44 -121 c-12 -16 -27 -30 -33 -30 -6 0 -20 -7 -31 -16 -19 -15 -18
-15 4 -11 12 3 22 1 22 -5 0 -5 4 -7 8 -4 4 2 14 1 21 -4 10 -6 6 -12 -17 -24
-26 -14 -31 -14 -42 -1 -10 12 -10 15 1 16 8 1 4 4 -9 7 l-23 7 20 22 c14 14
16 23 8 26 -6 2 -1 6 11 9 12 4 20 2 16 -3 -12 -20 14 -8 34 16 30 35 37 31
10 -5z m-105 -5 c-3 -9 -8 -14 -10 -11 -3 3 -2 9 2 15 9 16 15 13 8 -4z m252
-46 c8 -8 -43 -49 -61 -49 -8 0 -14 -7 -14 -15 0 -16 -16 -20 -24 -6 -3 5 14
18 39 30 41 19 65 41 30 27 -16 -6 -45 2 -45 13 0 8 66 8 75 0z m-98 -37 c-10
-10 -17 -24 -17 -30 0 -7 -9 -12 -19 -12 -11 0 -22 -6 -25 -12 -3 -7 -3 -2 0
12 4 14 7 25 8 26 0 0 14 10 30 22 33 25 47 21 23 -6z m-87 -66 c0 -3 -4 -8
-10 -11 -5 -3 -10 -1 -10 4 0 6 5 11 10 11 6 0 10 -2 10 -4z m124 -21 c-19
-15 -19 -15 1 -9 11 4 4 -5 -15 -19 -31 -22 -36 -23 -41 -8 -8 22 1 43 16 37
6 -2 18 0 26 5 23 15 34 10 13 -6z m36 -124 c0 -5 -11 -16 -25 -25 -31 -20
-32 -14 -3 14 24 22 28 24 28 11z m1230 -16 c16 -20 34 -19 26 1 -3 8 -2 12 4
9 6 -3 10 -12 10 -20 0 -9 7 -11 22 -7 17 4 20 2 15 -11 -4 -10 -2 -17 4 -17
5 0 9 -8 7 -17 -2 -10 3 -17 10 -15 6 1 12 -5 12 -13 0 -23 3 -25 -92 61 -14
13 -36 24 -48 24 -12 0 -18 5 -15 10 9 15 31 12 45 -5z m-1280 -101 c0 -8 -5
-12 -10 -9 -6 4 -8 11 -5 16 9 14 15 11 15 -7z m23 -51 c-4 -10 -13 -28 -21
-41 -13 -20 -17 -21 -24 -9 -14 27 6 54 49 66 1 1 -1 -7 -4 -16z m-8 -72 c-3
-6 -11 -11 -17 -11 -6 0 -6 6 2 15 14 17 26 13 15 -4z m65 -32 c-14 -26 -18
-24 -12 6 2 14 8 22 13 19 5 -3 5 -14 -1 -25z m38 -6 c-13 -47 -48 -84 -48
-51 0 11 49 88 56 88 1 0 -2 -16 -8 -37z m2172 -5 c0 -14 -19 1 -31 25 -12 22
-12 22 10 3 11 -11 21 -23 21 -28z m252 -52 c2 -19 1 -33 -3 -30 -4 2 -9 19
-11 38 -2 19 -1 33 3 30 4 -2 9 -19 11 -38z m-2212 -17 c-31 -26 -35 -28 -42
-12 -3 10 -7 13 -7 6 -2 -22 -46 -82 -61 -82 -10 0 -11 2 -2 6 13 5 42 55 42
73 0 6 -5 8 -12 4 -7 -4 -8 -3 -4 5 4 6 11 9 16 6 4 -3 10 1 13 9 3 8 14 12
25 10 10 -3 24 2 32 11 10 12 16 13 24 5 8 -9 2 -20 -24 -41z m2100 16 c14
-19 14 -19 -2 -6 -10 7 -18 18 -18 24 0 6 1 8 3 6 1 -2 9 -13 17 -24z m-2429
-8 c-10 -9 -11 -8 -5 6 3 10 9 15 12 12 3 -3 0 -11 -7 -18z m401 0 c11 9 12 2
9 -40 -2 -31 -9 -55 -17 -60 -17 -10 -8 -30 9 -21 7 3 -4 -8 -23 -24 -19 -17
-31 -34 -27 -38 4 -5 11 -3 15 3 4 6 20 15 35 18 21 6 27 4 27 -9 0 -9 4 -16
9 -16 5 0 8 -18 7 -40 0 -22 4 -42 9 -44 6 -3 -3 -4 -18 -3 -16 1 -33 7 -39
14 -6 7 -17 13 -26 13 -10 0 -7 -6 9 -18 26 -20 60 -36 72 -34 4 1 7 -5 7 -13
0 -20 9 -19 27 3 11 13 11 10 -1 -10 -13 -21 -13 -27 -2 -31 16 -6 19 -74 4
-83 -5 -3 -8 1 -6 9 2 9 -1 16 -7 16 -5 1 -10 -5 -11 -12 0 -6 -2 -16 -4 -22
-5 -18 -7 -30 -8 -43 -2 -8 -7 -9 -19 -3 -10 5 -26 12 -35 15 -10 3 -18 15
-18 28 -1 22 -1 22 -15 4 -15 -19 -15 -19 -15 2 0 12 4 22 10 22 5 0 8 10 6
23 -3 12 -5 31 -5 42 -1 14 -4 16 -12 8 -9 -9 -17 -8 -34 3 -12 8 -36 16 -52
17 -20 1 -29 6 -26 15 6 15 2 15 53 -3 24 -8 46 -12 49 -9 3 4 0 9 -6 11 -7 3
-13 11 -13 19 0 13 -28 19 -70 15 -11 -1 -10 3 4 14 11 8 38 15 60 16 40 1 41
1 11 10 -16 5 -38 6 -47 3 -31 -9 -61 -13 -54 -7 7 7 17 10 69 20 32 6 37 23
6 23 -11 0 -17 5 -14 10 9 14 -8 13 -23 -2 -14 -14 -16 0 -4 20 7 10 15 10 36
2 38 -14 56 0 20 16 -16 7 -24 13 -18 13 16 1 58 40 51 47 -4 4 -15 1 -24 -7
-17 -13 -17 -12 -2 6 25 31 34 49 21 41 -20 -12 -13 17 10 41 15 16 24 20 29
11 6 -9 11 -9 21 -1z m2117 -17 c11 -24 11 -24 -3 -6 -9 11 -16 24 -16 30 0
12 5 7 19 -24z m-146 -11 c24 -43 17 -45 -11 -3 -12 19 -19 34 -15 34 5 0 16
-14 26 -31z m-2194 -59 c-6 -16 -15 -28 -19 -25 -5 3 -13 -3 -19 -12 -10 -17
-10 -17 -11 0 0 11 9 21 19 24 11 3 21 13 24 24 3 10 8 19 11 19 3 0 0 -13 -5
-30z m31 -45 c0 -8 -2 -15 -4 -15 -2 0 -6 7 -10 15 -3 8 -1 15 4 15 6 0 10 -7
10 -15z m2137 -7 c-3 -8 -6 -5 -6 6 -1 11 2 17 5 13 3 -3 4 -12 1 -19z m-2090
6 c-3 -3 -12 -4 -19 -1 -8 3 -5 6 6 6 11 1 17 -2 13 -5z m999 -5 c3 -6 17 -8
30 -5 46 12 123 -5 166 -37 45 -32 48 -32 198 -22 36 2 80 8 99 14 27 8 36 8
45 -4 14 -19 60 -9 52 11 -8 21 3 17 30 -13 l26 -28 18 23 c24 29 38 28 52 -5
l11 -28 6 29 c11 52 81 51 81 -2 0 -21 16 -4 23 23 3 17 6 15 17 -12 13 -37
25 -42 35 -15 6 16 7 16 20 -1 12 -17 14 -15 26 20 l12 38 13 -30 13 -30 1 38
c0 20 4 37 9 37 11 0 21 -35 21 -74 0 -16 3 -27 6 -23 3 3 6 22 6 42 0 26 3
34 11 26 5 -5 10 -24 9 -41 0 -16 4 -30 9 -30 5 0 9 7 9 16 0 8 5 12 11 9 5
-4 9 -19 7 -33 -2 -19 2 -27 12 -27 8 0 22 -5 30 -10 13 -8 13 -7 1 8 -8 10
-12 20 -9 23 3 2 13 -8 23 -23 10 -15 15 -25 11 -21 -4 3 -17 -3 -28 -14 -12
-12 -26 -17 -36 -13 -21 8 -179 8 -192 0 -6 -4 -10 -24 -10 -46 0 -32 -7 -46
-34 -74 -19 -19 -37 -43 -40 -53 -9 -26 -55 -50 -65 -34 -5 9 -16 0 -35 -28
-14 -22 -30 -40 -34 -40 -13 0 -29 15 -41 37 -10 20 -13 21 -39 7 -15 -7 -36
-14 -47 -15 l-20 0 20 -9 c19 -8 19 -9 -2 -9 -13 -1 -23 4 -23 9 0 6 -4 10
-10 10 -5 0 -10 -6 -10 -14 0 -21 -94 -37 -137 -22 -14 4 -34 1 -53 -9 -29
-15 -64 -16 -85 -3 -6 4 -17 3 -25 -3 -21 -12 -74 -11 -105 3 -26 12 -42 48
-30 67 3 6 1 11 -4 11 -6 0 -11 -7 -11 -15 0 -27 -30 -29 -56 -5 -17 17 -24
34 -24 61 0 29 -4 37 -14 33 -22 -8 -153 34 -160 52 -3 9 -6 30 -6 47 0 32 -1
32 -18 12 -37 -44 -51 -49 -73 -29 -47 43 -65 155 -33 215 13 26 19 30 42 24
49 -12 77 -30 90 -58 14 -29 26 -34 38 -16 20 34 151 -32 160 -81 6 -29 7 -29
23 -9 16 20 17 20 129 -19 111 -38 116 -39 250 -38 88 1 144 5 157 13 19 12
18 12 -8 13 -16 0 -26 4 -22 10 10 16 -6 12 -29 -7 -15 -13 -17 -14 -9 -2 18
23 -2 40 -33 29 -14 -6 -26 -6 -29 0 -3 5 -32 8 -64 8 -47 -1 -65 4 -97 26
-21 14 -47 26 -56 26 -10 0 -18 7 -18 15 0 16 -8 18 -51 15 -18 -1 -28 5 -31
17 -4 15 -16 19 -69 21 -68 3 -85 11 -76 36 7 18 33 21 43 5z m1349 -17 c-3
-3 -11 0 -18 7 -9 10 -8 11 6 5 10 -3 15 -9 12 -12z m-2468 -29 c-8 -16 -16
-35 -19 -43 -2 -8 -7 -10 -10 -4 -4 5 3 24 14 42 25 39 34 42 15 5z m78 7 c-3
-5 -12 -10 -18 -10 -7 0 -6 4 3 10 19 12 23 12 15 0z m2132 -52 c-3 -8 -6 -5
-6 6 -1 11 2 17 5 13 3 -3 4 -12 1 -19z m-2177 -29 c0 -5 -10 -8 -22 -8 -18 1
-19 2 -5 6 9 2 14 9 11 15 -4 7 -2 8 4 4 7 -4 12 -11 12 -17z m177 -131 c-3
-8 -6 -5 -6 6 -1 11 2 17 5 13 3 -3 4 -12 1 -19z m2303 -50 c0 -18 -2 -20 -9
-8 -6 8 -7 18 -5 22 9 14 14 9 14 -14z m-148 -20 c-8 -8 -9 -4 -5 13 4 13 8
18 11 10 2 -7 -1 -18 -6 -23z m-1292 -38 c0 -11 -4 -20 -10 -20 -5 0 -10 9
-10 20 0 11 5 20 10 20 6 0 10 -9 10 -20z m1507 -17 c-3 -10 -5 -4 -5 12 0 17
2 24 5 18 2 -7 2 -21 0 -30z m-1961 -107 c10 -11 11 -17 3 -22 -6 -3 -15 0
-20 7 -18 29 -7 39 17 15z m-43 -3 c3 -5 -6 -9 -19 -9 -13 -1 -21 2 -18 7 6
11 31 12 37 2z m91 -45 c-6 -10 -5 -10 8 -1 18 16 28 7 28 -24 0 -14 -6 -23
-16 -23 -8 0 -13 4 -9 9 10 16 -12 21 -25 6 -7 -8 -16 -12 -22 -9 -5 3 -20 -2
-33 -10 -33 -22 -32 -9 0 16 20 16 23 23 14 34 -9 12 -5 14 25 14 27 0 35 -3
30 -12z m-244 -39 c0 -6 -4 -7 -10 -4 -5 3 -10 11 -10 16 0 6 5 7 10 4 6 -3
10 -11 10 -16z m570 -11 c0 -7 -7 -21 -14 -31 -11 -15 -15 -15 -25 -3 -14 17
2 32 21 20 8 -5 9 -2 5 9 -3 10 -2 17 3 17 6 0 10 -6 10 -12z m-296 -16 c3 -5
-8 -9 -25 -9 -19 0 -25 3 -17 9 17 10 35 10 42 0z m160 -1 c3 -5 -8 -14 -24
-20 -31 -10 -39 -4 -18 17 14 14 35 16 42 3z m184 -2 c-2 -6 -8 -10 -13 -10
-5 0 -11 4 -13 10 -2 6 4 11 13 11 9 0 15 -5 13 -11z m-563 -18 c-3 -6 -16
-16 -28 -22 -20 -10 -20 -9 3 14 25 24 38 28 25 8z m745 -12 c0 -10 -6 -19
-13 -19 -22 0 -27 11 -16 32 12 22 29 15 29 -13z m-865 11 c4 -6 10 -8 14 -6
4 3 8 -1 8 -9 0 -10 -5 -11 -17 -5 -10 5 -19 7 -22 5 -3 -3 -5 2 -5 10 0 17
13 20 22 5z m421 -4 c10 -8 16 -18 11 -22 -4 -4 -7 -2 -7 4 0 7 -6 12 -14 12
-8 0 -18 5 -21 10 -9 15 8 12 31 -4z m-271 -26 c-3 -5 -10 -10 -16 -10 -5 0
-9 5 -9 10 0 6 7 10 16 10 8 0 12 -4 9 -10z m45 0 c0 -5 -5 -10 -11 -10 -5 0
-7 5 -4 10 3 6 8 10 11 10 2 0 4 -4 4 -10z m340 0 c0 -5 -4 -10 -10 -10 -5 0
-10 5 -10 10 0 6 5 10 10 10 6 0 10 -4 10 -10z m-390 -34 c0 -2 -9 -2 -20 1
-11 3 -20 9 -20 15 0 5 9 4 20 -2 11 -6 20 -12 20 -14z m290 10 c0 -3 -4 -8
-10 -11 -5 -3 -10 -1 -10 4 0 6 5 11 10 11 6 0 10 -2 10 -4z m-195 -57 c-4 -5
-13 -9 -22 -9 -13 0 -13 3 -3 15 13 15 35 11 25 -6z m115 -43 c0 -2 -8 -10
-17 -17 -16 -13 -17 -12 -4 4 13 16 21 21 21 13z m-300 -42 c0 -8 -4 -12 -10
-9 -5 3 -10 13 -10 21 0 8 5 12 10 9 6 -3 10 -13 10 -21z m1950 -14 c0 -5 -5
-10 -11 -10 -5 0 -7 5 -4 10 3 6 8 10 11 10 2 0 4 -4 4 -10z m-1553 -36 c-3
-3 -12 -4 -19 -1 -8 3 -5 6 6 6 11 1 17 -2 13 -5z m-350 -11 c-9 -2 -15 -9
-12 -14 4 -5 2 -9 -3 -9 -6 0 -12 7 -16 15 -4 11 2 15 22 14 17 -1 20 -3 9 -6z
m33 -27 c-7 -7 -13 -7 -20 0 -6 6 -3 10 10 10 13 0 16 -4 10 -10z m-25 -16 c3
-5 1 -10 -4 -10 -6 0 -11 5 -11 10 0 6 2 10 4 10 3 0 8 -4 11 -10z m1845 -10
c0 -5 -4 -10 -10 -10 -5 0 -10 5 -10 10 0 6 5 10 10 10 6 0 10 -4 10 -10z
m-2814 -89 c0 -11 -5 -17 -13 -14 -14 6 -17 16 -6 26 11 12 19 7 19 -12z
m1650 0 c8 7 18 9 22 5 4 -4 -2 -14 -12 -22 -16 -11 -21 -11 -28 -1 -4 6 -7
17 -7 22 0 6 3 4 6 -3 4 -10 8 -10 19 -1z m-1589 -47 c-3 -3 -12 -4 -19 -1 -8
3 -5 6 6 6 11 1 17 -2 13 -5z m1403 -3 c0 -15 -31 -42 -41 -35 -13 8 8 44 26
44 8 0 15 -4 15 -9z m-1409 -38 c-8 -15 -10 -15 -11 -2 0 17 10 32 18 25 2 -3
-1 -13 -7 -23z m1141 -29 c-6 -28 -26 -37 -30 -13 -2 13 -9 19 -18 15 -8 -3
-14 -2 -14 3 0 14 12 19 38 16 20 -2 26 -7 24 -21z m-46 -41 c-3 -21 -26 -30
-26 -10 0 7 3 17 7 20 12 12 21 7 19 -10z m61 -26 c-8 -12 -24 -23 -37 -24
-20 -2 -19 1 12 32 34 36 51 31 25 -8z m1313 3 c0 -5 -4 -10 -10 -10 -5 0 -10
5 -10 10 0 6 5 10 10 10 6 0 10 -4 10 -10z m-2693 -126 c-3 -3 -12 -4 -19 -1
-8 3 -5 6 6 6 11 1 17 -2 13 -5z m2518 -46 c19 -23 23 -34 14 -37 -7 -2 -20 7
-28 20 -9 13 -24 30 -33 38 -10 9 -18 19 -18 24 0 14 37 -11 65 -45z m-1535
38 c0 -2 -8 -10 -17 -17 -16 -13 -17 -12 -4 4 13 16 21 21 21 13z m-195 -96
c3 -5 1 -10 -4 -10 -6 0 -11 5 -11 10 0 6 2 10 4 10 3 0 8 -4 11 -10z m691
-27 c-8 -15 -15 -22 -16 -15 0 17 20 55 27 49 2 -3 -2 -18 -11 -34z m-26 -12
c0 -5 -8 -17 -17 -27 -20 -20 -32 -1 -13 21 14 17 30 20 30 6z m24 -71 c-5 -5
-9 4 -10 23 -1 30 -1 30 9 9 6 -14 7 -26 1 -32z m850 -5 c5 -22 4 -26 -4 -15
-5 8 -10 24 -10 34 0 26 6 18 14 -19z m-651 -20 c-3 -9 -8 -14 -10 -11 -3 3
-2 9 2 15 9 16 15 13 8 -4z m-193 -5 c0 -5 -5 -10 -11 -10 -5 0 -7 5 -4 10 3
6 8 10 11 10 2 0 4 -4 4 -10z m202 -42 c-8 -8 -9 -4 -5 13 4 13 8 18 11 10 2
-7 -1 -18 -6 -23z m565 -15 c-3 -10 -5 -4 -5 12 0 17 2 24 5 18 2 -7 2 -21 0
-30z m-597 17 c0 -5 -5 -10 -11 -10 -5 0 -7 5 -4 10 3 6 8 10 11 10 2 0 4 -4
4 -10z m100 -6 c0 -8 -5 -12 -10 -9 -6 4 -8 11 -5 16 9 14 15 11 15 -7z m165
-4 c3 -5 1 -10 -4 -10 -6 0 -11 5 -11 10 0 6 2 10 4 10 3 0 8 -4 11 -10z m32
-32 c-3 -8 -6 -5 -6 6 -1 11 2 17 5 13 3 -3 4 -12 1 -19z m-37 -173 c-7 -9
-15 -13 -18 -10 -3 2 1 11 8 20 7 9 15 13 18 10 3 -2 -1 -11 -8 -20z"/>
<path d="M4085 6110 c3 -5 8 -10 11 -10 2 0 4 5 4 10 0 6 -5 10 -11 10 -5 0
-7 -4 -4 -10z"/>
<path d="M4131 6079 c11 -11 23 -19 25 -16 6 6 -25 37 -37 37 -5 0 0 -9 12
-21z"/>
<path d="M4855 5650 c-3 -5 -1 -10 4 -10 6 0 11 5 11 10 0 6 -2 10 -4 10 -3 0
-8 -4 -11 -10z"/>
<path d="M4508 5543 c7 -3 16 -2 19 1 4 3 -2 6 -13 5 -11 0 -14 -3 -6 -6z"/>
<path d="M4740 5466 c0 -8 5 -18 10 -21 6 -3 10 1 10 9 0 8 -4 18 -10 21 -5 3
-10 -1 -10 -9z"/>
<path d="M4422 5433 c1 -10 -2 -28 -6 -40 -4 -12 -2 -24 4 -28 6 -4 10 4 10
19 0 14 8 30 18 35 15 9 15 12 2 21 -22 14 -29 12 -28 -7z"/>
<path d="M4875 5380 c-3 -5 -2 -10 4 -10 5 0 13 5 16 10 3 6 2 10 -4 10 -5 0
-13 -4 -16 -10z"/>
<path d="M4160 5359 c-13 -9 -12 -10 3 -5 9 3 17 1 17 -4 0 -6 5 -10 11 -10
13 0 7 22 -7 27 -5 1 -16 -2 -24 -8z"/>
<path d="M3960 5350 c0 -5 7 -7 15 -4 8 4 15 8 15 10 0 2 -7 4 -15 4 -8 0 -15
-4 -15 -10z"/>
<path d="M3869 5328 c-11 -20 -10 -21 3 -11 8 7 17 10 20 7 3 -2 8 2 11 11 10
24 -21 18 -34 -7z"/>
<path d="M4163 5327 c3 -9 3 -18 -1 -20 -4 -2 -1 -2 5 -1 7 2 17 -5 22 -14 9
-15 10 -15 11 3 0 11 -10 26 -21 34 -19 11 -21 11 -16 -2z"/>
<path d="M4338 5321 c-7 -12 -18 -21 -25 -21 -7 0 -13 -9 -13 -20 0 -11 4 -20
10 -20 5 0 7 7 3 17 -5 14 -1 15 25 10 25 -5 30 -3 26 8 -4 9 3 18 17 24 13 5
19 10 12 10 -6 1 -18 4 -27 7 -9 3 -20 -3 -28 -15z"/>
<path d="M4820 5330 c0 -5 6 -10 14 -10 8 0 16 -5 18 -12 3 -7 12 -9 23 -4 17
6 16 8 -9 21 -33 18 -46 19 -46 5z"/>
<path d="M4050 5309 c0 -5 5 -7 10 -4 6 3 10 8 10 11 0 2 -4 4 -10 4 -5 0 -10
-5 -10 -11z"/>
<path d="M3920 5300 c-8 -5 -11 -12 -7 -16 4 -4 15 0 24 9 18 18 8 23 -17 7z"/>
<path d="M4076 5289 c5 -8 -1 -10 -19 -7 -19 4 -27 0 -30 -13 -4 -16 -2 -16
35 -3 22 8 44 12 48 9 5 -3 11 -1 14 4 3 5 -4 11 -17 15 -32 8 -39 7 -31 -5z"/>
<path d="M3840 5250 c-9 -6 -10 -10 -3 -10 6 0 15 5 18 10 8 12 4 12 -15 0z"/>
<path d="M4165 5250 c-3 -5 -2 -10 4 -10 5 0 13 5 16 10 3 6 2 10 -4 10 -5 0
-13 -4 -16 -10z"/>
<path d="M3919 5239 c-12 -7 -12 -9 1 -9 11 -1 10 -5 -6 -18 -22 -18 -21 -42
1 -42 7 0 15 -8 18 -17 3 -14 6 -12 16 11 9 21 9 32 0 42 -8 10 -8 14 0 14 6
0 11 4 11 9 0 14 -25 20 -41 10z"/>
<path d="M3696 5153 c-6 -14 -5 -15 5 -6 7 7 10 15 7 18 -3 3 -9 -2 -12 -12z"/>
<path d="M3882 5142 c-13 -2 -21 -9 -19 -15 4 -10 35 -11 46 -2 9 10 -7 20
-27 17z"/>
<path d="M4930 5090 c0 -5 5 -10 11 -10 5 0 7 5 4 10 -3 6 -8 10 -11 10 -2 0
-4 -4 -4 -10z"/>
<path d="M3920 5070 c0 -5 5 -10 10 -10 6 0 10 5 10 10 0 6 -4 10 -10 10 -5 0
-10 -4 -10 -10z"/>
<path d="M3923 4995 c0 -8 9 -15 20 -15 16 0 17 3 7 15 -7 8 -16 15 -20 15 -3
0 -7 -7 -7 -15z"/>
<path d="M4025 4960 c3 -5 8 -10 11 -10 2 0 4 5 4 10 0 6 -5 10 -11 10 -5 0
-7 -4 -4 -10z"/>
<path d="M3909 4925 c-1 -5 -1 -14 0 -19 1 -5 -5 -4 -13 4 -9 7 -16 8 -16 2 0
-13 31 -25 41 -15 5 5 4 15 -1 23 -5 8 -10 11 -11 5z"/>
<path d="M3948 4913 c7 -3 16 -2 19 1 4 3 -2 6 -13 5 -11 0 -14 -3 -6 -6z"/>
<path d="M3940 4770 c0 -5 5 -10 11 -10 5 0 7 5 4 10 -3 6 -8 10 -11 10 -2 0
-4 -4 -4 -10z"/>
<path d="M4000 4655 c-13 -14 -19 -25 -14 -25 8 1 50 50 41 50 -2 0 -14 -11
-27 -25z"/>
<path d="M3840 4289 c0 -5 5 -7 10 -4 6 3 10 8 10 11 0 2 -4 4 -10 4 -5 0 -10
-5 -10 -11z"/>
<path d="M4210 4114 c0 -8 5 -12 10 -9 6 3 10 10 10 16 0 5 -4 9 -10 9 -5 0
-10 -7 -10 -16z"/>
<path d="M4230 3941 c0 -11 31 -24 39 -16 3 3 -1 10 -9 15 -19 12 -30 12 -30
1z"/>
<path d="M4290 3770 c0 -5 5 -10 10 -10 6 0 10 5 10 10 0 6 -4 10 -10 10 -5 0
-10 -4 -10 -10z"/>
<path d="M5957 3813 c-4 -3 -7 -11 -7 -17 0 -6 5 -5 12 2 6 6 9 14 7 17 -3 3
-9 2 -12 -2z"/>
<path d="M5908 3798 c9 -9 15 -9 24 0 9 9 7 12 -12 12 -19 0 -21 -3 -12 -12z"/>
<path d="M5570 3596 c0 -8 4 -17 9 -20 5 -4 7 3 4 14 -6 23 -13 26 -13 6z"/>
<path d="M5209 9833 c-13 -16 -12 -17 4 -4 9 7 17 15 17 17 0 8 -8 3 -21 -13z"/>
<path d="M4580 9465 c0 -8 4 -15 10 -15 5 0 7 7 4 15 -4 8 -8 15 -10 15 -2 0
-4 -7 -4 -15z"/>
<path d="M4440 9299 c0 -5 5 -7 10 -4 6 3 10 8 10 11 0 2 -4 4 -10 4 -5 0 -10
-5 -10 -11z"/>
<path d="M7760 8508 c0 -7 5 -20 10 -28 9 -13 11 -13 20 0 5 8 8 20 7 25 -5
15 -37 18 -37 3z"/>
<path d="M5545 8241 c-3 -5 -1 -12 5 -16 5 -3 10 1 10 9 0 18 -6 21 -15 7z"/>
<path d="M5170 8140 c0 -5 4 -10 9 -10 6 0 7 -16 4 -37 -4 -26 -3 -34 5 -29
18 11 15 86 -3 86 -8 0 -15 -4 -15 -10z"/>
<path d="M6780 8120 c-6 -11 -8 -20 -6 -20 3 0 10 9 16 20 6 11 8 20 6 20 -3
0 -10 -9 -16 -20z"/>
<path d="M6875 8080 c-3 -5 -2 -10 4 -10 5 0 13 5 16 10 3 6 2 10 -4 10 -5 0
-13 -4 -16 -10z"/>
<path d="M7300 7980 c-13 -9 -13 -10 0 -10 8 0 22 5 30 10 13 9 13 10 0 10 -8
0 -22 -5 -30 -10z"/>
<path d="M4967 7800 c6 -24 25 -22 29 3 1 11 -5 17 -16 17 -13 0 -17 -5 -13
-20z"/>
<path d="M8032 7781 c2 -7 7 -12 11 -12 12 1 9 15 -3 20 -7 2 -11 -2 -8 -8z"/>
<path d="M8055 7740 c3 -5 8 -10 11 -10 2 0 4 5 4 10 0 6 -5 10 -11 10 -5 0
-7 -4 -4 -10z"/>
<path d="M4935 7730 c-3 -5 -1 -10 4 -10 6 0 11 5 11 10 0 6 -2 10 -4 10 -3 0
-8 -4 -11 -10z"/>
<path d="M7806 7278 c4 -11 1 -18 -5 -18 -8 0 -9 -5 -1 -19 5 -11 10 -29 10
-41 0 -12 23 -48 50 -80 31 -36 48 -64 44 -73 -7 -19 16 -34 26 -17 4 7 12 10
18 6 6 -3 14 -1 17 5 4 6 -9 24 -29 41 -26 21 -36 37 -36 57 0 25 -22 62 -80
131 -13 16 -18 18 -14 8z"/>
<path d="M7840 7100 c0 -5 5 -10 10 -10 6 0 10 5 10 10 0 6 -4 10 -10 10 -5 0
-10 -4 -10 -10z"/>
<path d="M4756 7045 c4 -8 10 -15 15 -15 5 0 9 7 9 15 0 8 -7 15 -15 15 -9 0
-12 -6 -9 -15z"/>
<path d="M7960 7015 c0 -2 10 -10 23 -16 20 -11 21 -11 8 4 -13 16 -31 23 -31
12z"/>
<path d="M7770 6070 c0 -11 4 -20 9 -20 5 0 7 9 4 20 -3 11 -7 20 -9 20 -2 0
-4 -9 -4 -20z"/>
<path d="M6500 5859 c-14 -15 -32 -28 -41 -28 -20 -1 -42 -25 -32 -35 4 -4 0
-4 -9 -1 -9 4 -19 2 -22 -4 -6 -10 34 -42 69 -55 16 -6 17 -9 5 -16 -8 -6 -23
-10 -33 -10 -17 0 -57 -19 -67 -32 -6 -8 -98 -50 -118 -54 -18 -3 -23 -9 -26
-30 -2 -10 3 -25 11 -32 16 -17 17 -32 1 -32 -7 0 -22 -8 -33 -16 l-20 -16 20
6 c25 7 73 -18 55 -29 -6 -4 -22 -2 -35 5 -32 17 -57 6 -53 -22 2 -13 5 -21 8
-18 3 3 16 -5 30 -17 13 -13 29 -23 34 -23 6 -1 22 -10 35 -20 19 -17 21 -23
11 -35 -7 -8 -15 -13 -19 -11 -4 3 -7 -3 -8 -13 -2 -22 59 -54 84 -44 12 5 15
2 11 -8 -10 -26 50 -10 72 19 11 13 20 20 20 15 0 -5 -5 -14 -12 -21 -15 -15
-3 -16 22 -2 14 8 30 6 56 -5 47 -20 51 -19 29 5 -11 12 -15 26 -11 37 5 12 9
14 14 6 4 -7 13 -9 21 -4 7 5 39 6 72 4 48 -4 59 -2 59 11 0 8 9 17 19 21 32
10 79 71 91 117 19 73 17 71 55 43 40 -31 79 -90 70 -105 -3 -5 -1 -10 4 -10
6 0 11 -9 11 -19 0 -12 -13 -24 -37 -34 -34 -13 -35 -15 -15 -21 38 -12 13
-27 -33 -20 -25 3 -50 2 -57 -2 -19 -12 60 -23 92 -14 44 14 91 20 86 11 -3
-5 1 -11 8 -14 8 -3 16 -2 18 4 2 5 25 -9 52 -31 49 -41 68 -51 47 -26 -10 12
-8 13 8 9 12 -3 28 -2 38 1 15 6 14 8 -5 22 -24 16 -29 40 -11 46 9 3 9 10 0
27 -7 12 -10 29 -7 37 3 8 -8 23 -29 37 -23 16 -31 27 -24 34 6 6 -3 16 -30
28 -22 10 -38 22 -35 26 3 5 -6 9 -20 9 -24 0 -30 8 -27 37 1 7 -7 9 -19 6
-12 -3 -22 1 -26 11 -3 9 -10 13 -15 10 -12 -7 -89 15 -89 26 0 4 -23 16 -51
25 -29 10 -71 30 -94 46 -24 16 -48 29 -54 29 -6 0 -11 4 -11 9 0 9 45 8 273
-3 42 -2 77 0 77 5 0 5 10 9 23 9 18 0 19 -2 7 -10 -13 -8 -12 -10 3 -10 9 0
17 7 17 15 0 18 4 18 46 3 27 -9 38 -8 66 5 18 9 28 17 21 17 -6 0 -19 3 -29
7 -12 4 -15 3 -10 -5 5 -8 -2 -12 -19 -12 -16 0 -24 4 -20 10 4 6 1 17 -5 25
-6 8 -9 18 -6 24 4 5 -11 15 -31 21 -21 7 -44 17 -50 22 -7 6 -21 8 -31 6 -10
-3 -23 1 -30 8 -22 24 -86 34 -238 37 l-149 4 -25 -28z m-47 -336 c2 -27 8
-58 12 -70 9 -27 -6 -31 -29 -8 -8 8 -24 15 -35 15 -11 0 -23 5 -26 11 -4 6
-13 8 -20 5 -14 -5 -29 20 -19 35 3 5 14 9 24 9 10 0 22 5 26 12 5 7 3 8 -6 3
-9 -5 -11 -4 -6 4 4 6 12 9 17 6 5 -4 16 1 25 9 25 25 32 19 37 -31z m301 -18
c-25 -19 -44 -19 -44 -1 0 8 12 16 28 18 36 5 40 1 16 -17z m-74 -10 c-16 -19
-30 -19 -30 -1 0 8 8 16 18 18 24 6 27 1 12 -17z m90 -10 c0 -8 -7 -15 -15
-15 -16 0 -20 12 -8 23 11 12 23 8 23 -8z m-442 -7 c-3 -7 -13 -15 -23 -16
-15 -4 -16 -2 -4 12 17 19 32 21 27 4z m372 8 c0 -3 -4 -8 -10 -11 -5 -3 -10
-1 -10 4 0 6 5 11 10 11 6 0 10 -2 10 -4z m-182 -159 c0 -13 -6 -24 -14 -24
-7 0 -12 3 -10 6 2 3 6 14 9 24 9 24 15 21 15 -6z"/>
<path d="M7657 5727 c-3 -9 -4 -24 0 -32 3 -9 -8 -44 -25 -78 -41 -86 -94
-298 -78 -314 10 -11 24 16 32 61 3 21 19 60 36 85 25 39 28 52 23 88 -7 51 0
69 21 52 12 -10 18 -8 29 7 16 21 14 41 -13 105 -14 32 -20 39 -25 26z"/>
<path d="M6940 5680 c0 -5 7 -10 16 -10 8 0 12 5 9 10 -3 6 -10 10 -16 10 -5
0 -9 -4 -9 -10z"/>
<path d="M6218 5543 c7 -3 16 -2 19 1 4 3 -2 6 -13 5 -11 0 -14 -3 -6 -6z"/>
<path d="M6210 5338 c0 -4 6 -8 14 -8 8 0 17 4 20 8 2 4 -4 8 -15 8 -10 0 -19
-4 -19 -8z"/>
<path d="M6671 5294 c13 -16 29 -19 29 -5 0 5 -9 11 -21 14 -16 4 -18 3 -8 -9z"/>
<path d="M7515 5100 c-3 -5 -1 -10 4 -10 6 0 11 5 11 10 0 6 -2 10 -4 10 -3 0
-8 -4 -11 -10z"/>
<path d="M7280 4425 c-13 -24 -21 -47 -17 -51 4 -4 16 14 28 40 27 61 20 68
-11 11z"/>
<path d="M7228 4284 c-5 -4 -8 -19 -8 -33 1 -23 2 -24 11 -8 11 19 9 53 -3 41z"/>
<path d="M6230 4216 c0 -15 -3 -16 -15 -6 -8 7 -15 9 -15 6 0 -4 7 -14 15 -22
9 -9 15 -11 15 -4 0 6 5 8 10 5 13 -8 13 5 0 25 -8 13 -10 12 -10 -4z"/>
<path d="M7181 4163 c-8 -21 -19 -45 -26 -53 -11 -14 -20 -51 -30 -120 -2 -14
-7 -35 -10 -47 -5 -15 -3 -23 4 -23 6 0 11 8 11 18 0 10 7 27 15 38 8 10 15
36 15 57 0 20 4 37 9 37 9 0 41 94 41 119 0 24 -17 9 -29 -26z"/>
<path d="M7070 3871 c0 -6 5 -13 10 -16 6 -3 10 1 10 9 0 9 -4 16 -10 16 -5 0
-10 -4 -10 -9z"/>
<path d="M6897 3820 c3 -11 9 -20 13 -20 5 0 6 9 3 20 -3 11 -9 20 -13 20 -5
0 -6 -9 -3 -20z"/>
<path d="M6830 3778 c0 -9 5 -20 10 -23 13 -8 13 5 0 25 -8 13 -10 13 -10 -2z"/>
<path d="M7020 3756 c0 -14 5 -26 10 -26 6 0 10 9 10 19 0 11 -4 23 -10 26 -6
4 -10 -5 -10 -19z"/>
<path d="M7000 3709 c0 -5 5 -7 10 -4 6 3 10 8 10 11 0 2 -4 4 -10 4 -5 0 -10
-5 -10 -11z"/>
<path d="M6831 3683 c-9 -16 -12 -16 -21 -3 -5 8 -10 11 -10 5 0 -12 10 -26
30 -42 13 -9 15 -6 16 23 1 39 -1 41 -15 17z"/>
<path d="M6967 3693 c-4 -3 -7 -14 -7 -24 0 -9 -7 -19 -15 -23 -9 -3 -15 0
-15 9 0 8 -7 15 -15 15 -17 0 -20 -16 -5 -25 6 -3 10 -22 10 -41 0 -19 4 -34
8 -34 10 0 32 45 32 65 0 8 7 15 15 15 8 0 15 6 15 13 0 18 -15 38 -23 30z"/>
<path d="M6750 3671 c0 -17 12 -41 20 -41 10 0 1 38 -11 46 -5 3 -9 1 -9 -5z"/>
<path d="M6449 3633 c-1 -5 -1 -11 0 -15 0 -4 -4 -19 -9 -33 -6 -15 -6 -34 0
-47 8 -21 9 -21 10 -3 1 11 4 39 6 63 3 23 3 42 0 42 -4 0 -7 -3 -7 -7z"/>
<path d="M6777 3606 c-3 -8 -3 -25 -1 -38 5 -21 4 -22 -9 -6 -16 20 -27 14
-27 -16 -1 -12 -7 -32 -15 -46 l-14 -25 -2 35 c-1 32 -2 29 -16 -23 -12 -44
-19 -57 -30 -52 -9 3 -22 -3 -29 -12 -12 -17 -13 -17 -14 -1 0 9 4 19 9 22 5
3 11 14 13 24 5 16 2 17 -18 8 -18 -8 -21 -17 -17 -37 3 -15 0 -30 -6 -34 -8
-5 -10 1 -5 19 4 16 2 26 -4 26 -6 0 -12 -12 -14 -27 -3 -28 -28 -45 -28 -19
0 9 -4 16 -9 16 -5 0 -12 12 -14 28 -4 25 -4 25 -6 -5 0 -18 4 -33 9 -33 6 0
10 -4 10 -10 0 -5 -7 -10 -15 -10 -11 0 -15 -11 -15 -36 0 -35 21 -70 35 -56
3 4 3 -7 -1 -23 -4 -17 -11 -31 -16 -33 -4 -2 -8 -17 -8 -32 0 -33 -18 -49
-31 -29 -13 20 -29 -6 -29 -48 0 -17 -4 -35 -10 -38 -20 -12 -11 -33 13 -28
29 7 56 31 73 65 8 16 20 28 28 28 7 0 21 10 32 21 10 12 29 25 40 29 12 5 30
26 41 47 11 21 32 44 47 51 32 16 86 87 86 114 0 28 -15 14 -47 -42 -15 -28
-31 -50 -35 -50 -16 0 5 184 22 195 6 4 -2 -65 -11 -91 -8 -24 14 -18 34 8 15
20 21 46 24 97 3 65 -8 100 -20 67z m-103 -218 c11 -42 7 -88 -8 -88 -8 0 -17
6 -20 13 -2 6 -4 3 -4 -8 2 -41 -3 -53 -23 -58 -16 -4 -19 -2 -14 11 4 9 8 34
9 55 1 25 7 42 19 48 9 6 17 19 17 29 0 27 16 25 24 -2z m-78 -64 c-4 -9 -9
-15 -11 -12 -3 3 -3 13 1 22 4 9 9 15 11 12 3 -3 3 -13 -1 -22z m-30 -99 c-7
-18 -26 -20 -26 -2 0 18 24 41 28 27 2 -6 1 -17 -2 -25z"/>
<path d="M6580 3554 c0 -11 7 -29 15 -40 13 -17 14 -16 3 16 -14 43 -18 49
-18 24z"/>
<path d="M6830 3545 c0 -17 -5 -36 -12 -43 -9 -9 -8 -16 6 -30 17 -16 19 -16
33 5 8 12 23 32 34 44 21 24 24 39 10 39 -6 0 -18 -13 -28 -30 -21 -36 -37
-39 -31 -6 3 14 1 31 -3 38 -6 9 -9 3 -9 -17z"/>
<path d="M6511 3545 c0 -11 4 -27 9 -35 9 -13 10 -13 9 0 0 8 -4 24 -9 35 l-9
20 0 -20z"/>
<path d="M6651 3544 c0 -11 3 -14 6 -6 3 7 2 16 -1 19 -3 4 -6 -2 -5 -13z"/>
<path d="M6465 3540 c-3 -5 -1 -10 4 -10 6 0 11 5 11 10 0 6 -2 10 -4 10 -3 0
-8 -4 -11 -10z"/>
<path d="M6552 3475 c0 -16 2 -22 5 -12 2 9 2 23 0 30 -3 6 -5 -1 -5 -18z"/>
<path d="M6310 3432 c0 -9 38 -52 46 -52 3 0 -3 14 -13 30 -16 29 -33 39 -33
22z"/>
<path d="M6450 3383 c0 -13 5 -23 10 -23 13 0 13 11 0 30 -8 12 -10 11 -10 -7z"/>
<path d="M6480 3351 c0 -12 -6 -32 -14 -44 -18 -29 -33 -132 -17 -123 6 4 11
22 11 40 0 18 9 43 20 55 14 17 17 31 13 55 -7 39 -13 46 -13 17z"/>
<path d="M6310 3324 c0 -8 -4 -13 -9 -9 -5 3 -12 1 -15 -4 -3 -5 5 -11 18 -13
20 -4 23 -1 22 19 -1 25 -16 32 -16 7z"/>
<path d="M6246 3259 l-19 -32 -24 27 c-31 36 -29 25 5 -26 15 -22 33 -50 39
-62 18 -30 16 2 -2 34 -12 22 -11 27 7 47 11 12 18 27 16 33 -2 6 -12 -4 -22
-21z"/>
<path d="M6104 3255 c16 -8 46 -33 68 -55 22 -22 45 -40 50 -40 18 0 -62 84
-93 97 -43 18 -61 16 -25 -2z"/>
<path d="M6010 3130 c17 -33 51 -59 75 -60 18 0 17 1 -4 18 -12 9 -37 28 -53
42 l-31 24 13 -24z"/>
<path d="M5442 3030 c0 -19 2 -27 5 -17 2 9 2 25 0 35 -3 9 -5 1 -5 -18z"/>
<path d="M6245 3031 c-3 -5 -1 -12 5 -16 5 -3 10 1 10 9 0 18 -6 21 -15 7z"/>
<path d="M6175 3020 c-3 -5 -1 -10 4 -10 6 0 11 5 11 10 0 6 -2 10 -4 10 -3 0
-8 -4 -11 -10z"/>
<path d="M4740 3010 c0 -5 5 -10 11 -10 5 0 7 5 4 10 -3 6 -8 10 -11 10 -2 0
-4 -4 -4 -10z"/>
<path d="M5925 3012 c40 -37 98 -84 88 -72 -6 8 -12 20 -14 25 -1 6 -20 20
-43 33 -23 13 -36 19 -31 14z"/>
<path d="M5355 2970 c3 -5 8 -10 11 -10 2 0 4 5 4 10 0 6 -5 10 -11 10 -5 0
-7 -4 -4 -10z"/>
<path d="M4845 2930 c-3 -5 -1 -10 4 -10 6 0 11 5 11 10 0 6 -2 10 -4 10 -3 0
-8 -4 -11 -10z"/>
<path d="M5194 2916 c-4 -10 -2 -21 3 -25 6 -3 12 -13 15 -20 4 -13 5 -13 9 0
3 7 0 25 -7 39 -12 22 -14 22 -20 6z"/>
<path d="M5156 2898 c-3 -13 -6 -26 -6 -30 0 -12 34 -2 38 12 3 8 0 10 -8 5
-9 -5 -10 -2 -5 14 3 11 2 21 -3 21 -5 0 -12 -10 -16 -22z"/>
<path d="M4950 2868 c0 -4 7 -8 15 -8 8 0 15 4 15 8 0 5 -7 9 -15 9 -8 0 -15
-4 -15 -9z"/>
<path d="M5075 2860 c-3 -5 -2 -10 4 -10 5 0 13 5 16 10 3 6 2 10 -4 10 -5 0
-13 -4 -16 -10z"/>
<path d="M5040 2847 c0 -26 11 -47 31 -58 17 -9 17 -6 -3 28 -28 49 -28 49
-28 30z"/>
<path d="M4760 2800 c0 -5 5 -10 10 -10 6 0 10 5 10 10 0 6 -4 10 -10 10 -5 0
-10 -4 -10 -10z"/>
<path d="M5811 2765 c12 -19 25 -32 31 -29 5 3 -3 19 -18 35 -36 37 -38 37
-13 -6z"/>
<path d="M4743 2777 c-3 -5 -3 -11 0 -13 7 -7 57 7 57 16 0 10 -50 7 -57 -3z"/>
<path d="M5900 2773 c0 -6 8 -17 18 -24 16 -13 16 -13 2 6 -8 11 -16 22 -17
24 -2 2 -3 0 -3 -6z"/>
<path d="M5032 2740 c0 -14 2 -19 5 -12 2 6 2 18 0 25 -3 6 -5 1 -5 -13z"/>
<path d="M3590 2700 c0 -9 15 -14 33 -11 5 1 6 -3 3 -8 -4 -5 -2 -12 3 -15 17
-11 22 12 5 28 -17 18 -44 21 -44 6z"/>
<path d="M5946 2697 c3 -10 9 -15 12 -12 3 3 0 11 -7 18 -10 9 -11 8 -5 -6z"/>
<path d="M3586 2668 c5 -7 9 -20 9 -28 0 -8 8 -16 18 -18 20 -4 22 16 4 38
-15 19 -42 26 -31 8z"/>
<path d="M5526 2632 c-2 -4 -1 -14 5 -22 7 -12 9 -10 9 8 0 23 -5 28 -14 14z"/>
<path d="M5591 2624 c0 -11 3 -14 6 -6 3 7 2 16 -1 19 -3 4 -6 -2 -5 -13z"/>
<path d="M5231 2614 c0 -11 3 -14 6 -6 3 7 2 16 -1 19 -3 4 -6 -2 -5 -13z"/>
<path d="M4895 2610 c-3 -5 -1 -10 4 -10 6 0 11 5 11 10 0 6 -2 10 -4 10 -3 0
-8 -4 -11 -10z"/>
<path d="M4925 2591 c-3 -5 -1 -12 5 -16 5 -3 10 1 10 9 0 18 -6 21 -15 7z"/>
<path d="M4961 2584 c0 -11 3 -14 6 -6 3 7 2 16 -1 19 -3 4 -6 -2 -5 -13z"/>
<path d="M5646 2563 c-4 -9 -2 -21 4 -27 7 -7 10 -2 10 17 0 31 -5 34 -14 10z"/>
<path d="M5121 2554 c0 -11 3 -14 6 -6 3 7 2 16 -1 19 -3 4 -6 -2 -5 -13z"/>
<path d="M5441 2554 c0 -11 3 -14 6 -6 3 7 2 16 -1 19 -3 4 -6 -2 -5 -13z"/>
<path d="M5616 2555 c4 -8 8 -15 10 -15 2 0 4 7 4 15 0 8 -4 15 -10 15 -5 0
-7 -7 -4 -15z"/>
<path d="M5590 2551 c0 -6 4 -13 10 -16 6 -3 7 1 4 9 -7 18 -14 21 -14 7z"/>
<path d="M5425 2510 c-3 -5 -1 -10 4 -10 6 0 11 5 11 10 0 6 -2 10 -4 10 -3 0
-8 -4 -11 -10z"/>
<path d="M5311 2434 c0 -11 3 -14 6 -6 3 7 2 16 -1 19 -3 4 -6 -2 -5 -13z"/>
<path d="M5803 2358 c-24 -15 -50 -54 -111 -171 -121 -233 -146 -276 -202
-362 -29 -43 -61 -97 -72 -119 -10 -23 -23 -48 -28 -56 -5 -8 -33 -53 -61
-100 -29 -47 -90 -135 -136 -197 -45 -61 -83 -115 -83 -120 0 -4 -10 -19 -23
-33 -13 -14 -23 -27 -23 -30 0 -5 -26 -51 -83 -150 -15 -25 -32 -58 -40 -75
-12 -29 -45 -96 -74 -153 -66 -130 -84 -163 -111 -202 -17 -25 -34 -47 -37
-50 -4 -3 -15 -21 -25 -40 -34 -64 -67 -104 -161 -199 -51 -52 -94 -101 -94
-108 -1 -7 -2 -19 -2 -25 -1 -7 12 -48 28 -90 l30 -78 55 0 55 1 56 102 c145
262 296 573 393 807 30 72 76 159 108 206 30 45 80 133 111 195 50 104 96 173
154 236 19 20 26 21 46 12 14 -6 29 -25 34 -43 9 -31 9 -31 83 -34 41 -1 85
-7 97 -13 27 -14 46 -60 73 -175 26 -110 50 -154 84 -154 14 0 27 3 29 8 9 14
-11 228 -27 282 -20 68 -24 319 -6 430 12 82 15 500 3 511 -5 3 -22 -2 -40
-13z"/>
</g>
</svg>
